<svg width="24" height="24" viewBox="0 0 24 24" fill="black" xmlns="http://www.w3.org/2000/svg">
<path d="M8.57539 2.89961L17.0004 11.2996C17.1004 11.3996 17.1711 11.5079 17.2124 11.6246C17.2544 11.7413 17.2754 11.8663 17.2754 11.9996C17.2754 12.1329 17.2544 12.2579 17.2124 12.3746C17.1711 12.4913 17.1004 12.5996 17.0004 12.6996L8.57539 21.1246C8.34206 21.3579 8.05039 21.4746 7.70039 21.4746C7.35039 21.4746 7.05039 21.3496 6.80039 21.0996C6.55039 20.8496 6.42539 20.5579 6.42539 20.2246C6.42539 19.8913 6.55039 19.5996 6.80039 19.3496L14.1504 11.9996L6.80039 4.64961C6.56706 4.41628 6.45039 4.12894 6.45039 3.78761C6.45039 3.44561 6.57539 3.14961 6.82539 2.89961C7.07539 2.64961 7.36706 2.52461 7.70039 2.52461C8.03372 2.52461 8.32539 2.64961 8.57539 2.89961Z" fill="#3C3C3C"/>
</svg>
