<svg width="7" height="12" viewBox="0 0 7 12" fill="none" xmlns="http://www.w3.org/2000/svg">
<path d="M0.499964 0.710754C0.40726 0.803268 0.333713 0.913157 0.283531 1.03413C0.23335 1.1551 0.20752 1.28479 0.20752 1.41575C0.20752 1.54672 0.23335 1.67641 0.283531 1.79738C0.333713 1.91835 0.40726 2.02824 0.499964 2.12075L4.37996 6.00075L0.499964 9.88075C0.312986 10.0677 0.207943 10.3213 0.207943 10.5858C0.207943 10.8502 0.312986 11.1038 0.499964 11.2908C0.686941 11.4777 0.940537 11.5828 1.20496 11.5828C1.46939 11.5828 1.72299 11.4777 1.90996 11.2908L6.49996 6.70075C6.59267 6.60824 6.66621 6.49835 6.7164 6.37738C6.76658 6.25641 6.79241 6.12672 6.79241 5.99575C6.79241 5.86479 6.76658 5.7351 6.7164 5.61413C6.66621 5.49316 6.59267 5.38327 6.49996 5.29075L1.90996 0.700754C1.52996 0.320754 0.889964 0.320754 0.499964 0.710754Z" fill="#F3F3F3"/>
</svg>
