<svg width="7" height="12" viewBox="0 0 7 12" fill="none" xmlns="http://www.w3.org/2000/svg">
<path d="M6.50004 0.710754C6.59274 0.803268 6.66629 0.913157 6.71647 1.03413C6.76665 1.1551 6.79248 1.28479 6.79248 1.41575C6.79248 1.54672 6.76665 1.67641 6.71647 1.79738C6.66629 1.91835 6.59274 2.02824 6.50004 2.12075L2.62004 6.00075L6.50004 9.88075C6.68701 10.0677 6.79206 10.3213 6.79206 10.5858C6.79206 10.8502 6.68701 11.1038 6.50004 11.2908C6.31306 11.4777 6.05946 11.5828 5.79504 11.5828C5.53061 11.5828 5.27701 11.4777 5.09004 11.2908L0.500036 6.70075C0.407333 6.60824 0.333785 6.49835 0.283604 6.37738C0.233422 6.25641 0.207593 6.12672 0.207593 5.99575C0.207593 5.86479 0.233422 5.7351 0.283604 5.61413C0.333785 5.49316 0.407333 5.38327 0.500036 5.29075L5.09004 0.700754C5.47004 0.320754 6.11004 0.320754 6.50004 0.710754Z" fill="#F3F3F3"/>
</svg>
