<svg width="24" height="25" viewBox="0 0 24 25" fill="none" xmlns="http://www.w3.org/2000/svg">
<path d="M2 9.16667V8.33333C2 6.03583 3.86917 4.16667 6.16667 4.16667H7V3.33333C7 2.87333 7.3725 2.5 7.83333 2.5C8.29417 2.5 8.66667 2.87333 8.66667 3.33333V4.16667H15.3333V3.33333C15.3333 2.87333 15.7058 2.5 16.1667 2.5C16.6275 2.5 17 2.87333 17 3.33333V4.16667H17.8333C20.1308 4.16667 22 6.03583 22 8.33333V9.16667H2ZM22 10.8333V18.3333C22 20.6308 20.1308 22.5 17.8333 22.5H6.16667C3.86917 22.5 2 20.6308 2 18.3333V10.8333H22ZM16.86 13.46C16.54 13.1292 16.0133 13.1192 15.6817 13.4383L11.72 17.2567C11.4067 17.57 10.8808 17.5933 10.5208 17.235L8.6225 15.4708C8.28667 15.1583 7.76 15.1758 7.445 15.5142C7.13167 15.8508 7.15083 16.3783 7.48833 16.6917L9.365 18.435C9.83667 18.9075 10.465 19.1675 11.1325 19.1675C11.8 19.1675 12.4292 18.9075 12.8892 18.4458L16.8392 14.6392C17.17 14.32 17.18 13.7908 16.86 13.46Z" fill="#F3F3F3"/>
</svg>
