<svg width="40" height="41" viewBox="0 0 40 41" fill="none" xmlns="http://www.w3.org/2000/svg">
<path d="M24.3417 20.5486C24.3417 18.1514 22.3983 16.2083 20.0013 16.2083C17.6042 16.2083 15.6611 18.1514 15.6611 20.5486C15.6611 22.9456 17.6042 24.889 20.0013 24.889C22.3983 24.889 24.3417 22.9456 24.3417 20.5486Z" fill="#A6BCC6"/>
<path fill-rule="evenodd" clip-rule="evenodd" d="M19.5674 9.87403C19.3041 9.87392 19.0601 9.87381 18.8332 9.87415V9.8709C16.4065 9.87363 15.941 9.88991 14.7399 9.94421C13.4703 10.0025 12.781 10.2141 12.322 10.3932C11.7144 10.6296 11.2804 10.9118 10.8246 11.3675C10.3688 11.8232 10.0862 12.2572 9.85016 12.8649C9.67191 13.3239 9.4598 14.013 9.40173 15.2825C9.33936 16.6551 9.32686 17.0653 9.32686 20.5424C9.32686 24.0196 9.33936 24.4318 9.40173 25.8045C9.45954 27.074 9.67191 27.7631 9.85016 28.2216C10.0868 28.8295 10.3688 29.2624 10.8245 29.7182C11.2802 30.1739 11.7144 30.4559 12.3219 30.692C12.7813 30.8702 13.4703 31.0824 14.7399 31.141C16.1124 31.2033 16.5245 31.2169 20.0013 31.2169C23.478 31.2169 23.8903 31.2033 25.2629 31.141C26.5325 31.0829 27.222 30.8713 27.6805 30.6923C28.2884 30.4562 28.7211 30.1742 29.1769 29.7184C29.6326 29.263 29.9153 28.8303 30.1512 28.2226C30.3295 27.7641 30.5416 27.0751 30.5996 25.8055C30.662 24.433 30.6756 24.0206 30.6756 20.5456C30.6756 17.0706 30.662 16.6584 30.5996 15.2857C30.5418 14.0162 30.3295 13.3271 30.1512 12.8688C29.9146 12.2611 29.6326 11.8271 29.1769 11.3714C28.7214 10.9156 28.2882 10.6334 27.6805 10.3975C27.2215 10.2192 26.5325 10.0071 25.2629 9.94902C23.89 9.88665 23.478 9.87415 20.0013 9.87415C19.8511 9.87415 19.7066 9.87409 19.5674 9.87403ZM25.3894 13.5981C25.3894 12.7354 26.0892 12.0361 26.9519 12.0361C27.8145 12.0361 28.5144 12.7355 28.5144 13.5981C28.5144 14.4607 27.8145 15.1606 26.9519 15.1606C26.0892 15.1606 25.3894 14.4607 25.3894 13.5981ZM13.3146 20.5486C13.3146 16.8559 16.3085 13.8619 20.0011 13.8618C23.6939 13.8618 26.6871 16.8559 26.6871 20.5486C26.6871 24.2415 23.6942 27.2341 20.0013 27.2341C16.3086 27.2341 13.3146 24.2415 13.3146 20.5486Z" fill="#A6BCC6"/>
<path fill-rule="evenodd" clip-rule="evenodd" d="M11.146 3.88184H28.8543C33.1691 3.88184 36.6668 7.37961 36.6668 11.6943V29.4027C36.6668 33.7174 33.1691 37.2152 28.8543 37.2152H11.146C6.83127 37.2152 3.3335 33.7174 3.3335 29.4027V11.6943C3.3335 7.37961 6.83127 3.88184 11.146 3.88184ZM14.6325 7.60632C16.0213 7.54316 16.4651 7.52767 20.0013 7.52767H19.9973C23.5347 7.52767 23.9769 7.54316 25.3658 7.60632C26.752 7.66973 27.6987 7.88926 28.5288 8.21139C29.386 8.54355 30.1103 8.98848 30.8345 9.7127C31.5589 10.4365 32.0037 11.163 32.3374 12.0195C32.6575 12.8473 32.8772 13.7934 32.9424 15.1796C33.0047 16.5686 33.021 17.0123 33.021 20.5486C33.021 24.085 33.0047 24.5277 32.9424 25.9165C32.8772 27.3021 32.6575 28.2486 32.3374 29.0769C32.0037 29.933 31.5589 30.6594 30.8345 31.3831C30.1111 32.1075 29.3857 32.5535 28.5296 32.886C27.7011 33.208 26.7538 33.4274 25.3676 33.491C23.9788 33.5541 23.5364 33.5696 19.9998 33.5696C16.4637 33.5696 16.0202 33.5541 14.6313 33.491C13.2453 33.4274 12.299 33.208 11.4705 32.886C10.6146 32.5535 9.88818 32.1075 9.16462 31.3831C8.44066 30.6594 7.99574 29.933 7.66292 29.0765C7.34118 28.2486 7.12178 27.3024 7.05798 25.9162C6.99495 24.5274 6.97933 24.085 6.97933 20.5486C6.97933 17.0123 6.99561 16.5683 7.05771 15.1794C7.12008 13.7938 7.33975 12.8472 7.66266 12.0191C7.99626 11.163 8.44118 10.4365 9.16553 9.7127C9.88923 8.98874 10.6157 8.54382 11.4722 8.21126C12.3 7.88926 13.2463 7.66986 14.6325 7.60632Z" fill="#A6BCC6"/>
</svg>
