<svg width="40" height="41" viewBox="0 0 40 41" fill="none" xmlns="http://www.w3.org/2000/svg">
<path d="M13.8502 17.6816C13.0254 17.6816 12.2192 17.9264 11.5336 18.385C10.8481 18.8436 10.314 19.4953 9.99916 20.2577C9.68429 21.02 9.60276 21.8586 9.76488 22.6673C9.92701 23.476 10.3255 24.2184 10.9099 24.8005C11.4943 25.3825 12.2383 25.7781 13.0476 25.9369C13.857 26.0958 14.6953 26.0109 15.4563 25.693C16.2174 25.3751 16.867 24.8384 17.3228 24.151C17.7786 23.4636 18.0202 22.6564 18.0169 21.8316C18.0125 20.7295 17.5716 19.6739 16.7906 18.8961C16.0097 18.1183 14.9524 17.6816 13.8502 17.6816ZM13.8502 24.015C13.5486 24.0414 13.2448 24.0048 12.958 23.9075C12.6713 23.8102 12.408 23.6543 12.1847 23.4498C11.9615 23.2453 11.7832 22.9965 11.6613 22.7194C11.5393 22.4422 11.4763 22.1428 11.4763 21.84C11.4763 21.5372 11.5393 21.2377 11.6613 20.9606C11.7832 20.6834 11.9615 20.4347 12.1847 20.2302C12.408 20.0256 12.6713 19.8697 12.958 19.7724C13.2448 19.6751 13.5486 19.6385 13.8502 19.665C14.1519 19.6385 14.4557 19.6751 14.7424 19.7724C15.0291 19.8697 15.2925 20.0256 15.5157 20.2302C15.739 20.4347 15.9173 20.6834 16.0392 20.9606C16.1612 21.2377 16.2241 21.5372 16.2241 21.84C16.2241 22.1428 16.1612 22.4422 16.0392 22.7194C15.9173 22.9965 15.739 23.2453 15.5157 23.4498C15.2925 23.6543 15.0291 23.8102 14.7424 23.9075C14.4557 24.0048 14.1519 24.0414 13.8502 24.015ZM26.1502 17.6816C25.3254 17.6816 24.5192 17.9264 23.8336 18.385C23.1481 18.8436 22.614 19.4953 22.2992 20.2577C21.9843 21.02 21.9028 21.8586 22.0649 22.6673C22.227 23.476 22.6255 24.2184 23.2099 24.8005C23.7943 25.3825 24.5383 25.7781 25.3476 25.9369C26.157 26.0958 26.9953 26.0109 27.7563 25.693C28.5174 25.3751 29.167 24.8384 29.6228 24.151C30.0786 23.4636 30.3202 22.6564 30.3169 21.8316C30.3125 20.7295 29.8716 19.6739 29.0906 18.8961C28.3097 18.1183 27.2524 17.6816 26.1502 17.6816ZM28.3336 21.8316C28.3369 22.2642 28.2116 22.6879 27.9737 23.0491C27.7358 23.4104 27.396 23.6928 26.9974 23.8606C26.5987 24.0284 26.1592 24.0741 25.7346 23.9917C25.31 23.9093 24.9194 23.7027 24.6124 23.3981C24.3054 23.0934 24.0958 22.7044 24.0101 22.2804C23.9245 21.8564 23.9668 21.4166 24.1315 21.0167C24.2963 20.6168 24.5761 20.2748 24.9355 20.0341C25.2949 19.7935 25.7177 19.665 26.1502 19.665C26.7264 19.665 27.2792 19.8927 27.6882 20.2986C28.0972 20.7044 28.3292 21.2555 28.3336 21.8316Z" fill="#A6BCC6"/>
<path d="M20.0002 3.88184C16.7038 3.88184 13.4815 4.85932 10.7407 6.69068C7.99985 8.52203 5.86364 11.125 4.60218 14.1704C3.34072 17.2159 3.01066 20.567 3.65375 23.8C4.29684 27.033 5.88418 30.0027 8.21506 32.3336C10.5459 34.6645 13.5156 36.2518 16.7487 36.8949C19.9817 37.538 23.3328 37.208 26.3782 35.9465C29.4237 34.685 32.0266 32.5488 33.858 29.808C35.6894 27.0672 36.6668 23.8449 36.6668 20.5485C36.6668 18.3598 36.2357 16.1925 35.3982 14.1704C34.5606 12.1484 33.3329 10.311 31.7853 8.76339C30.2376 7.21575 28.4003 5.98809 26.3782 5.15051C24.3561 4.31293 22.1889 3.88184 20.0002 3.88184ZM32.3002 21.8318C32.3019 23.0294 31.9539 24.2014 31.2989 25.2039C30.644 26.2065 29.7106 26.9961 28.6133 27.4757C27.516 27.9553 26.3025 28.1041 25.1219 27.9039C23.9412 27.7037 22.8446 27.1631 21.9668 26.3485L20.0002 28.4985L18.0335 26.3485C17.4382 26.8957 16.7409 27.3202 15.9815 27.5979C15.2221 27.8756 14.4154 28.001 13.6076 27.967C12.7997 27.933 12.0064 27.7401 11.2731 27.3995C10.5398 27.0589 9.88068 26.5772 9.3335 25.9818C8.78633 25.3865 8.36177 24.6892 8.08407 23.9298C7.80637 23.1704 7.68096 22.3638 7.71501 21.5559C7.74906 20.748 7.94189 19.9548 8.28251 19.2214C8.62312 18.4881 9.10484 17.829 9.70017 17.2818L7.70017 15.1152H12.1668C14.4764 13.5344 17.2098 12.6885 20.0085 12.6885C22.8072 12.6885 25.5406 13.5344 27.8502 15.1152H32.3002L30.3002 17.2985C30.9281 17.8754 31.4299 18.5759 31.7741 19.3561C32.1183 20.1362 32.2974 20.9791 32.3002 21.8318Z" fill="#A6BCC6"/>
<path d="M24.6166 15.6315C23.1541 15.0209 21.5849 14.7065 20 14.7065C18.4151 14.7065 16.8459 15.0209 15.3833 15.6315C16.6759 16.0628 17.8081 16.8743 18.6318 17.9597C19.4556 19.0451 19.9324 20.354 20 21.7149C20.072 20.3552 20.5506 19.0485 21.3737 17.9639C22.1968 16.8793 23.3265 16.0668 24.6166 15.6315Z" fill="#A6BCC6"/>
</svg>
