<svg width="40" height="41" viewBox="0 0 40 41" fill="none" xmlns="http://www.w3.org/2000/svg">
<g clip-path="url(#clip0_6617_24258)">
<path fill-rule="evenodd" clip-rule="evenodd" d="M20.0002 3.88184C10.7952 3.88184 3.3335 11.3435 3.3335 20.5485C3.3335 23.6985 4.2085 26.6485 5.73016 29.1618L4.2435 34.2152C4.15814 34.5053 4.15252 34.8131 4.22724 35.1061C4.30195 35.3992 4.45424 35.6667 4.66809 35.8806C4.88195 36.0944 5.14946 36.2467 5.44252 36.3214C5.73558 36.3961 6.04336 36.3905 6.3335 36.3052L11.3868 34.8185C13.9846 36.3903 16.9639 37.2193 20.0002 37.2152C29.2052 37.2152 36.6668 29.7535 36.6668 20.5485C36.6668 11.3435 29.2052 3.88184 20.0002 3.88184ZM16.2302 24.3202C19.6018 27.6902 22.8202 28.1352 23.9568 28.1768C25.6852 28.2402 27.3685 26.9202 28.0235 25.3885C28.1062 25.198 28.1362 24.9887 28.1104 24.7826C28.0846 24.5765 28.0039 24.3811 27.8768 24.2168C26.9635 23.0502 25.7285 22.2118 24.5218 21.3785C24.2699 21.2043 23.9603 21.1344 23.658 21.1835C23.3556 21.2326 23.084 21.3969 22.9002 21.6418L21.9002 23.1668C21.8476 23.2488 21.7657 23.3076 21.6712 23.3312C21.5767 23.3547 21.4767 23.3412 21.3918 23.2935C20.7135 22.9052 19.7252 22.2452 19.0152 21.5352C18.3052 20.8252 17.6852 19.8818 17.3368 19.2468C17.2936 19.1662 17.2812 19.0726 17.3017 18.9834C17.3222 18.8942 17.3744 18.8155 17.4485 18.7618L18.9885 17.6185C19.2083 17.4274 19.3501 17.1622 19.387 16.8733C19.4239 16.5844 19.3532 16.292 19.1885 16.0518C18.4418 14.9585 17.5718 13.5685 16.3102 12.6468C16.1473 12.5288 15.9566 12.4553 15.7567 12.4334C15.5568 12.4114 15.3547 12.4419 15.1702 12.5218C13.6368 13.1785 12.3102 14.8618 12.3735 16.5935C12.4152 17.7302 12.8602 20.9485 16.2302 24.3202Z" fill="#A6BCC6"/>
</g>
<defs>
<clipPath id="clip0_6617_24258">
<rect width="40" height="40" fill="white" transform="translate(0 0.54834)"/>
</clipPath>
</defs>
</svg>
