<svg width="24" height="24" viewBox="0 0 24 24" fill="none" xmlns="http://www.w3.org/2000/svg">
<path d="M12.7692 21.6042L21.7082 12.7388C21.8143 12.6332 21.8893 12.5189 21.9332 12.3958C21.9777 12.2726 22 12.1407 22 12C22 11.8593 21.9777 11.7274 21.9332 11.6042C21.8893 11.4811 21.8143 11.3668 21.7082 11.2612L12.7692 2.36939C12.5217 2.12313 12.2122 2 11.8408 2C11.4695 2 11.1512 2.13193 10.8859 2.39578C10.6207 2.65963 10.4881 2.96746 10.4881 3.31926C10.4881 3.67106 10.6207 3.97889 10.8859 4.24274L18.6844 12L10.8859 19.7573C10.6384 20.0035 10.5146 20.3068 10.5146 20.667C10.5146 21.028 10.6472 21.3404 10.9125 21.6042C11.1777 21.8681 11.4872 22 11.8408 22C12.1945 22 12.504 21.8681 12.7692 21.6042Z" fill="#F3F3F3"/>
<path d="M4.28095 21.6042L13.2199 12.7388C13.326 12.6332 13.401 12.5189 13.4449 12.3958C13.4894 12.2726 13.5117 12.1407 13.5117 12C13.5117 11.8593 13.4894 11.7274 13.4449 11.6042C13.401 11.4811 13.326 11.3668 13.2199 11.2612L4.28095 2.36939C4.03338 2.12313 3.72392 2 3.35257 2C2.98121 2 2.66291 2.13193 2.39766 2.39578C2.13241 2.65963 1.99978 2.96746 1.99978 3.31926C1.99978 3.67106 2.13241 3.97889 2.39766 4.24274L10.1961 12L2.39766 19.7573C2.15009 20.0035 2.02631 20.3068 2.02631 20.667C2.02631 21.028 2.15893 21.3404 2.42419 21.6042C2.68944 21.8681 2.9989 22 3.35257 22C3.70624 22 4.0157 21.8681 4.28095 21.6042Z" fill="#F3F3F3"/>
</svg>
