<svg width="42" height="42" viewBox="0 0 42 42" fill="none" xmlns="http://www.w3.org/2000/svg">
<path d="M40.8903 15.9878C39.6951 13.0498 37.7717 10.7987 34.8413 9.43068C34.4221 9.23514 33.9314 9.25089 33.5268 9.47229C32.211 10.1931 31.0386 11.1292 30.0623 12.2309C29.8058 11.9263 27.9188 9.71753 26.4809 8.95637C26.2915 8.85577 26.0722 8.73456 25.8339 8.60043C24.4834 7.83805 22.5175 6.63328 21.7662 6.17028C21.5736 6.0515 21.3297 6.04746 21.131 6.15654C20.8684 6.30078 20.6099 6.45147 20.3562 6.60742C18.2467 7.90593 16.4354 9.6141 15.0432 11.6152C13.6449 10.2674 11.876 9.27514 9.89599 8.79315C9.47077 8.68972 9.01763 8.7988 8.69639 9.08646C5.46778 11.9748 2.77727 15.598 0.17334 19.1068C0.17334 15.4259 1.62905 11.7885 3.69447 8.99354C7.49922 3.84032 13.7509 0.478516 20.8195 0.478516C20.8749 0.478516 20.9307 0.478516 20.9862 0.479728C25.3598 0.512453 29.4141 1.83075 32.7617 4.06334C34.4581 5.19378 35.9721 6.55894 37.2555 8.10996C39.17 10.4242 40.5812 13.0276 40.8903 15.9878Z" fill="url(#paint0_linear_6695_12643)"/>
<path d="M11.8793 12.7977C12.0197 12.5949 11.9306 12.3363 10.7225 12.2486C10.708 12.2474 10.6926 12.2474 10.678 12.2486C9.08842 12.3557 9.2462 13.4983 9.4226 14.0594C9.50352 14.3168 9.71391 14.52 9.98215 14.5952C10.5263 14.7479 11.6167 14.7252 13.4806 13.4308C13.5838 13.3593 13.7254 13.3669 13.8201 13.4486C13.9503 13.5609 14.1195 13.6231 14.2942 13.6231H14.9468C15.0727 13.6231 15.1932 13.5762 15.2839 13.4926L21.1031 8.11314C21.3434 7.89093 21.7083 7.85255 21.994 8.0186C22.4766 8.29898 23.2259 8.78218 23.8502 9.39467C24.0173 9.5587 24.0549 9.80596 23.9412 10.008C23.6293 10.5619 23.3247 11.363 22.9002 11.8939C22.5713 12.3056 21.962 12.3969 21.5222 12.0955C21.43 12.0321 21.3365 11.9658 21.2378 11.9064C21.0476 11.7917 20.9044 11.6107 20.8615 11.399C20.8243 11.2144 20.8559 11.0043 21.1079 10.8681C21.2649 10.7833 21.4526 10.7655 21.629 10.8006C22.2363 10.921 22.6041 10.9158 22.8177 10.8831C23.0079 10.854 23.147 10.6964 23.1385 10.5114C23.126 10.2399 22.91 9.86373 21.8451 9.79384C20.4116 9.6997 20.1183 10.677 20.0617 10.9853C20.0495 11.0523 20.0325 11.1174 20.0139 11.1832C19.971 11.336 19.9063 11.6471 19.933 12.0806C19.9714 12.7128 21.9806 13.1217 21.9806 13.1217C21.9806 13.1217 22.8307 13.3447 23.3328 12.6943C23.7106 12.2046 24.515 11.1889 24.89 10.7158C24.9964 10.5813 25.2011 10.5671 25.327 10.6851L27.5809 12.8005C28.272 13.449 29.0419 14.017 29.8834 14.4719C31.1381 15.1507 32.9344 15.848 34.7442 15.6121C35.4214 15.524 36.0307 15.1361 36.337 14.5483C36.496 14.2433 36.5531 13.9382 36.5608 13.6724C36.5761 13.1286 36.2298 12.6308 35.7034 12.4329C35.22 12.2515 34.5115 12.1323 33.6283 12.3965C32.6019 12.704 32.5112 13.3031 32.6096 13.7423C32.7079 14.1822 33.1173 14.5087 33.5822 14.4618C33.8739 14.4323 34.2016 14.2655 34.4674 13.7782C34.5504 13.6259 34.6527 13.4821 34.7789 13.3601C35.4028 12.7561 35.8305 13.2704 35.8305 13.2704C35.8305 13.2704 36.5017 13.8724 34.8866 14.7996C33.793 15.4274 32.5173 14.9495 31.8068 14.5754C31.4678 14.3968 31.3132 14.0101 31.4411 13.6591C31.6887 12.9791 32.2114 11.839 33.1505 10.9829C33.388 10.7663 33.7339 10.7021 34.043 10.8051C35.7034 11.357 40.9776 13.6352 41.2706 20.3734C41.2859 20.7305 41.112 21.0715 40.8114 21.2808C40.2858 21.6468 39.2618 22.2181 37.4537 22.7567C37.2878 22.806 37.1057 22.7474 37.0103 22.6076C36.9366 22.5001 36.8512 22.351 36.7715 22.1531C36.6882 21.9458 36.5879 21.745 36.4612 21.5588C36.1707 21.1313 36.0263 20.7321 35.9636 20.5204C35.9539 20.4881 35.9992 20.4683 36.019 20.4958L37.0042 21.8541C37.0503 21.9179 37.147 21.922 37.1988 21.8622L37.3477 21.6913C37.4719 21.5487 37.4994 21.3507 37.4185 21.1822C37.0293 20.3714 35.7524 18.1246 33.7493 18.6062C32.0504 18.971 31.094 18.4422 30.8362 18.2681C30.759 18.2159 30.6801 18.1662 30.5967 18.1234C30.0902 17.8636 28.5714 17.2168 27.8532 18.3691L27.4911 18.3133C27.4911 18.3133 27.4806 18.4155 27.5595 18.6115C27.5862 18.6773 27.6012 18.7484 27.5959 18.8191C27.5603 19.2882 27.7824 19.5932 27.9734 19.7657C28.1757 19.9488 28.2946 20.2029 28.3177 20.4691C28.3201 20.499 28.3221 20.5289 28.3237 20.5592C28.3306 20.7039 28.4528 20.819 28.6033 20.8263C28.8198 20.8364 29.0791 20.842 29.0706 20.8093C29.0561 20.7536 28.8966 19.8752 29.1863 19.4845C29.3805 19.2227 29.4315 20.0401 29.4441 20.6065C29.4509 20.9212 29.3676 21.2319 29.2013 21.503L28.083 23.3292C28.0357 23.4067 28.0074 23.4936 28.0013 23.5833C27.9924 23.7109 27.9859 23.8814 28.013 23.8903C28.0563 23.9045 28.433 23.9045 28.6215 23.7368C28.7906 23.5865 29.2288 22.0412 30.1456 21.5361C30.3633 21.4161 30.636 21.4085 30.852 21.5309C31.2437 21.7527 31.3351 22.1955 31.3472 22.5054C31.3561 22.7348 31.4743 22.947 31.6656 23.0835L32.4845 23.6681C32.5339 23.7033 32.5141 23.778 32.4534 23.7857C31.6418 23.8847 28.0195 24.2822 25.1299 23.8956L21.1314 22.9902C20.8255 22.9211 20.6091 22.6589 20.607 22.3567L20.5965 20.4489C20.5957 20.3269 20.5722 20.2065 20.5257 20.093C20.4189 19.8328 20.1826 19.4066 19.7732 19.3674C19.6045 19.3512 19.4402 19.4482 19.3913 19.6045C19.3597 19.7059 19.3508 19.8453 19.4086 20.0288C19.4333 20.1079 19.5118 20.1601 19.598 20.1601H19.602C19.6862 20.1601 19.7578 20.1007 19.7699 20.0207L19.7873 19.9075C19.7995 19.8288 19.8994 19.794 19.9589 19.8498C20.1231 20.0037 20.3161 20.2849 19.8828 20.516C19.8108 20.5544 19.7287 20.5717 19.6469 20.5717H19.5167C19.3621 20.5717 19.2161 20.5047 19.121 20.3879C18.9102 20.1298 18.6144 19.6348 18.9017 19.1302C19.0024 18.9533 19.1655 18.8167 19.3532 18.727C19.3593 18.7242 19.3654 18.7214 19.3714 18.7181C19.6174 18.603 19.8897 18.5497 20.1628 18.5509L21.9462 18.5593C22.5058 18.5618 22.9682 18.9787 23.0083 19.5157C23.069 20.3273 23.1361 21.4763 23.0973 22.2145C23.0884 22.3858 23.2668 22.5086 23.4335 22.4468L24.5744 22.0234C24.7901 21.9434 24.9531 21.7688 25.013 21.5539L25.7704 18.8337C25.8683 18.4826 25.7825 18.1085 25.5414 17.8289C24.4976 16.6177 21.4733 13.4494 18.5627 13.6603C15.8317 13.8582 13.1116 16.3979 11.9642 17.6047C11.6033 17.984 11.4488 18.504 11.5463 19.0098L11.9282 20.9899C11.9602 21.1547 11.8109 21.2986 11.6397 21.2683C10.3564 21.0404 5.7983 20.4413 1.19814 22.3793C-0.111918 22.7429 -0.102208 21.9054 0.103727 21.1988C0.231981 20.758 0.446413 20.3451 0.71951 19.9706C1.78681 18.5076 5.80518 13.2126 9.9336 10.5081C10.1424 10.3716 10.4013 10.3215 10.6461 10.3817C11.1381 10.5029 12.0039 10.8382 12.8385 11.7646C13.0364 11.984 13.0117 12.3169 12.79 12.5137L11.6503 13.5253C11.4192 13.7302 11.111 13.8457 10.7982 13.8186C10.5979 13.8013 10.3867 13.7261 10.2237 13.5302C9.95181 13.2029 10.2811 12.9932 10.5656 12.8821C10.8067 12.788 11.0802 12.7924 11.3108 12.908L11.3335 12.9193C11.522 13.0146 11.7627 12.9686 11.8809 12.7981L11.8793 12.7977Z" fill="#69B9DC"/>
<path d="M31.8483 21.1672C32.0984 21.1632 32.7505 21.0937 33.6762 20.5677C33.7394 20.5317 33.8211 20.5455 33.8648 20.6024C33.9926 20.7701 34.2188 21.1923 34.2459 22.1021C34.2487 22.193 34.2143 22.2815 34.1496 22.3478C33.9595 22.5425 33.5492 23.0116 33.4072 23.5614C33.3991 23.5934 33.3554 23.6002 33.3384 23.5715L33.2429 23.4087C33.1543 23.2576 33.0046 23.1481 32.8294 23.1065L32.3816 22.9994C32.2485 22.9675 32.1331 22.8887 32.0599 22.7772C31.8981 22.5312 31.6602 22.0314 31.7233 21.2796C31.7286 21.2169 31.7828 21.1685 31.8483 21.1672Z" fill="#69B9DC"/>
<path d="M34.265 23.3385C34.2998 23.17 34.3953 22.8444 34.6692 22.5709C34.846 22.3943 34.9358 22.1527 34.9358 21.9075V21.3689C34.9358 21.3229 34.9844 21.2918 35.0285 21.31C35.317 21.4287 36.1986 21.8647 36.5125 22.8545C36.5352 22.9264 36.4907 23.002 36.4142 23.0173L34.3581 23.4274C34.3027 23.4383 34.2533 23.3918 34.2642 23.3385H34.265Z" fill="#69B9DC"/>
<path d="M0 23.1595C0 23.1595 3.4568 20.9657 14.9301 22.8993C14.9301 22.8993 20.4155 23.8289 23.6607 24.4608C26.9059 25.0931 37.7869 26.7661 41.27 22.2298C41.27 22.2298 39.5768 29.8148 32.9788 30.856C32.9788 30.856 28.0647 31.5626 19.6427 27.8816C10.0241 23.429 0 23.1595 0 23.1595Z" fill="#0092CB"/>
<path d="M0.17334 23.5889C0.17334 23.5889 9.22033 24.4054 20.8106 29.8709C33.6178 35.8386 40.6006 28.0585 40.6006 28.0585C40.6006 28.0585 38.9203 34.0819 32.6039 38.2368C32.6039 38.2368 26.0561 38.2554 20.9955 34.0912C11.9942 26.0594 0.17334 23.5889 0.17334 23.5889Z" fill="#69B9DC"/>
<path d="M30.8451 39.0492C27.8289 40.7695 24.3519 41.7501 20.6503 41.7501C10.3191 41.7501 1.73702 34.1134 0.0219727 24.0684C0.505455 24.2376 8.9662 27.2084 11.0668 28.3279C13.231 29.4801 16.0509 31.8974 16.0509 31.8974C16.0509 31.8974 23.0139 39.2872 30.8451 39.0492Z" fill="#0092CB"/>
<defs>
<linearGradient id="paint0_linear_6695_12643" x1="20.5318" y1="19.1068" x2="20.5318" y2="0.478516" gradientUnits="userSpaceOnUse">
<stop stop-color="#EFDC24"/>
<stop offset="1" stop-color="#F4B330"/>
</linearGradient>
</defs>
</svg>
