<svg width="21" height="21" viewBox="0 0 21 21" fill="none" xmlns="http://www.w3.org/2000/svg">
<path d="M16.0554 2.1665H4.94428C3.40956 2.1665 2.1665 3.40956 2.1665 4.94428V13.2776C2.1665 14.8123 3.40956 16.0554 4.94428 16.0554H6.97206L9.57623 18.2498C9.84012 18.486 10.1734 18.604 10.5068 18.604C10.8401 18.604 11.1526 18.4929 11.4026 18.2637L14.0762 16.0554H16.0554C17.5901 16.0554 18.8332 14.8123 18.8332 13.2776V4.94428C18.8332 3.40956 17.5901 2.1665 16.0554 2.1665ZM14.0901 8.84706L12.5832 10.0762L13.2082 11.9721C13.2915 12.229 13.2082 12.5137 12.9929 12.6734C12.7776 12.8401 12.4859 12.8471 12.2568 12.7012L10.5068 11.5623L8.78456 12.7151C8.68039 12.7846 8.55539 12.8193 8.43039 12.8193C8.29845 12.8193 8.15956 12.7776 8.04845 12.6943C7.83317 12.5346 7.74289 12.2498 7.82623 11.9929L8.42345 10.0762L6.90956 8.84706C6.70817 8.67345 6.63178 8.39567 6.72206 8.14567C6.81234 7.89567 7.05539 7.729 7.31928 7.729H9.229L9.90262 5.9165C9.99289 5.6665 10.2359 5.49984 10.4998 5.49984C10.7637 5.49984 11.0068 5.6665 11.0971 5.9165L11.7707 7.729H13.6804C13.9443 7.729 14.1873 7.89567 14.2776 8.14567C14.3679 8.39567 14.2915 8.68039 14.0901 8.854V8.84706Z" fill="#0092CB"/>
</svg>
