<svg width="25" height="24" viewBox="0 0 25 24" fill="none" xmlns="http://www.w3.org/2000/svg">
<g clip-path="url(#clip0_6646_24607)">
<path d="M19.49 21.8414C19.6394 22.3033 19.1093 22.6857 18.7182 22.3982L12.7961 18.0457C12.6199 17.9162 12.3801 17.9162 12.2039 18.0457L6.28187 22.3982C5.89072 22.6857 5.36063 22.3033 5.51003 21.8414L7.78867 14.7973C7.85512 14.5919 7.78223 14.367 7.60793 14.2397L1.67384 9.90378C1.28331 9.61843 1.48515 9.00007 1.96882 9.00007H9.28635C9.50363 9.00007 9.69604 8.85974 9.76244 8.65285L12.0239 1.60564C12.1725 1.14268 12.8275 1.14268 12.9761 1.60564L15.2376 8.65285C15.304 8.85974 15.4964 9.00007 15.7137 9.00007H23.0304C23.514 9.00007 23.7159 9.6184 23.3254 9.90377L17.3921 14.2396C17.2178 14.367 17.1449 14.5918 17.2113 14.7972L19.49 21.8414Z" fill="#EFA400"/>
</g>
<defs>
<clipPath id="clip0_6646_24607">
<rect width="24" height="24" fill="white" transform="translate(0.5)"/>
</clipPath>
</defs>
</svg>
