<svg width="527" height="146" viewBox="0 0 527 146" fill="none" xmlns="http://www.w3.org/2000/svg">
<g clip-path="url(#clip0_3447_28992)">
<path d="M143.661 55.3898C139.462 45.0677 132.704 37.1586 122.408 32.3523C120.936 31.6653 119.212 31.7207 117.79 32.4985C113.168 35.0308 109.048 38.3197 105.618 42.1905C104.717 41.1202 98.0873 33.3601 93.0355 30.6859C92.3703 30.3325 91.5998 29.9066 90.7626 29.4354C86.0178 26.7569 79.111 22.5241 76.4713 20.8975C75.7947 20.4801 74.9376 20.4659 74.2396 20.8492C73.3171 21.3559 72.4088 21.8854 71.5176 22.4333C64.1061 26.9954 57.7423 32.9968 52.851 40.0272C47.9385 35.292 41.7239 31.8058 34.7673 30.1125C33.2734 29.7491 31.6814 30.1323 30.5527 31.143C19.2095 41.2905 9.75687 54.0201 0.608398 66.3479C0.608398 53.4154 5.72278 40.6362 12.9793 30.8165C26.3466 12.7115 48.3109 0.900391 73.1451 0.900391C73.3399 0.900391 73.536 0.900391 73.7308 0.904649C89.0967 1.01962 103.341 5.65126 115.102 13.4951C121.062 17.4667 126.381 22.263 130.89 27.7122C137.617 35.8427 142.575 44.9896 143.661 55.3898Z" fill="url(#paint0_linear_3447_28992)"/>
<path d="M41.7353 44.1802C42.2285 43.4677 41.9158 42.5592 37.6714 42.2512C37.6202 42.247 37.5662 42.247 37.515 42.2512C31.9301 42.6274 32.4845 46.6416 33.1042 48.6132C33.3885 49.5173 34.1277 50.2313 35.0701 50.4953C36.982 51.0319 40.8128 50.9524 47.3614 46.4045C47.7239 46.1533 48.2214 46.1802 48.554 46.467C49.0117 46.8616 49.6059 47.0802 50.22 47.0802H52.5128C52.9548 47.0802 53.3784 46.9155 53.6968 46.6217L74.1416 27.7218C74.9859 26.9412 76.2681 26.8063 77.2716 27.3897C78.9674 28.3748 81.5999 30.0724 83.7933 32.2243C84.3803 32.8006 84.5125 33.6693 84.1131 34.379C83.0171 36.3251 81.9468 39.1398 80.4557 41.005C79.3 42.4514 77.1593 42.7722 75.6142 41.7133C75.2901 41.4904 74.9618 41.2576 74.6149 41.049C73.9468 40.6458 73.4436 40.0099 73.293 39.2661C73.1622 38.6175 73.2731 37.8794 74.1586 37.401C74.7102 37.1029 75.3697 37.0405 75.9895 37.164C78.1231 37.5869 79.4152 37.5685 80.1657 37.4535C80.8338 37.3513 81.3228 36.7977 81.2929 36.1476C81.2489 35.1938 80.4898 33.8723 76.7485 33.6267C71.7123 33.296 70.6818 36.7296 70.4828 37.8126C70.4401 38.0483 70.3804 38.2768 70.315 38.5082C70.1644 39.0447 69.9369 40.1377 70.0307 41.6607C70.1658 43.8822 77.2247 45.3186 77.2247 45.3186C77.2247 45.3186 80.2112 46.1022 81.9752 43.8169C83.3028 42.0965 86.1287 38.528 87.4464 36.8659C87.8202 36.3932 88.5395 36.3435 88.9816 36.758L96.9005 44.1902C99.3283 46.4684 102.033 48.4641 104.99 50.0624C109.398 52.4471 115.709 54.897 122.067 54.0681C124.447 53.7586 126.588 52.396 127.664 50.3307C128.222 49.259 128.423 48.1873 128.45 47.2533C128.504 45.3428 127.287 43.594 125.438 42.8985C123.739 42.2612 121.25 41.8424 118.147 42.7707C114.541 43.8509 114.222 45.956 114.568 47.4989C114.913 49.0447 116.352 50.1916 117.985 50.0269C119.01 49.9233 120.161 49.3371 121.095 47.6252C121.386 47.0901 121.746 46.5848 122.19 46.1561C124.381 44.034 125.884 45.841 125.884 45.841C125.884 45.841 128.242 47.956 122.568 51.2136C118.725 53.4194 114.244 51.7402 111.748 50.4258C110.556 49.7984 110.013 48.44 110.463 47.2065C111.332 44.8176 113.169 40.8119 116.468 37.8041C117.303 37.0433 118.518 36.8176 119.604 37.1796C125.438 39.1185 143.968 47.1227 144.997 70.7962C145.051 72.0509 144.44 73.2489 143.383 73.9842C141.537 75.2702 137.939 77.2773 131.587 79.1694C131.004 79.3426 130.364 79.1368 130.029 78.6457C129.77 78.2681 129.47 77.7443 129.19 77.0488C128.897 76.3206 128.545 75.6152 128.1 74.9608C127.079 73.459 126.572 72.0566 126.352 71.3128C126.317 71.1993 126.477 71.1297 126.546 71.2262L130.008 75.9984C130.17 76.2227 130.509 76.2369 130.691 76.0268L131.214 75.4264C131.651 74.9253 131.747 74.2298 131.463 73.6379C130.096 70.7891 125.61 62.8956 118.572 64.5875C112.603 65.8693 109.243 64.0112 108.337 63.3995C108.066 63.2164 107.789 63.0418 107.496 62.8913C105.716 61.9786 100.38 59.7061 97.8571 63.7543L96.5849 63.5584C96.5849 63.5584 96.5479 63.9176 96.8251 64.606C96.9189 64.8373 96.9715 65.0872 96.9531 65.3356C96.828 66.9835 97.6084 68.0552 98.2793 68.6613C98.99 69.3043 99.4079 70.1972 99.4889 71.1326C99.4975 71.2376 99.5046 71.3426 99.5103 71.4491C99.5344 71.9573 99.9637 72.3618 100.492 72.3873C101.253 72.4228 102.164 72.4427 102.134 72.3277C102.083 72.1318 101.523 69.046 102.541 67.6734C103.223 66.7536 103.402 69.6251 103.446 71.6152C103.47 72.7209 103.178 73.8125 102.593 74.7649L98.6645 81.1808C98.4982 81.4533 98.3987 81.7585 98.3774 82.0736C98.3461 82.5221 98.3233 83.1211 98.4186 83.1524C98.5707 83.2021 99.894 83.2021 100.556 82.613C101.151 82.085 102.69 76.6556 105.911 74.8813C106.676 74.4597 107.634 74.4328 108.393 74.8629C109.769 75.6421 110.09 77.1978 110.133 78.2865C110.164 79.0928 110.579 79.838 111.251 80.3178L114.128 82.3717C114.302 82.4952 114.232 82.7578 114.019 82.7847C111.168 83.1325 98.4413 84.5292 88.2893 83.1708L74.2411 79.9899C73.1665 79.7471 72.406 78.8259 72.3989 77.7642L72.3619 71.0616C72.3591 70.6329 72.2766 70.2099 72.1132 69.8111C71.7379 68.8969 70.9078 67.3994 69.4693 67.2617C68.8765 67.205 68.2994 67.5456 68.1274 68.095C68.0165 68.4512 67.9853 68.941 68.1885 69.5854C68.2752 69.8636 68.551 70.0467 68.8538 70.0467H68.868C69.1637 70.0467 69.4153 69.838 69.4579 69.557L69.519 69.1595C69.5617 68.8828 69.9128 68.7607 70.1217 68.9566C70.6988 69.4974 71.3769 70.4853 69.8545 71.2972C69.6015 71.4321 69.3129 71.4931 69.0258 71.4931H68.5681C68.0251 71.4931 67.5119 71.2575 67.1779 70.8473C66.4373 69.9402 65.3982 68.2014 66.4075 66.4285C66.7614 65.8068 67.3342 65.3271 67.9938 65.0119C68.0151 65.002 68.0364 64.9921 68.0578 64.9807C68.922 64.5762 69.8786 64.3888 70.8381 64.3931L77.1039 64.4229C79.0698 64.4314 80.6945 65.8963 80.8352 67.7827C81.0484 70.6343 81.2844 74.6712 81.1479 77.2645C81.1167 77.8664 81.7435 78.2979 82.3292 78.0807L86.3377 76.5931C87.0953 76.3121 87.6681 75.6989 87.8785 74.9438L90.5395 65.3867C90.8835 64.1532 90.5821 62.8388 89.7349 61.8565C86.0676 57.601 75.4422 46.4698 65.2163 47.2108C55.6215 47.9063 46.065 56.8289 42.0338 61.0687C40.7659 62.4016 40.2229 64.2284 40.5654 66.0056L41.9073 72.9622C42.0196 73.5414 41.4951 74.0467 40.8938 73.9402C36.385 73.1397 20.3709 71.0346 4.20895 77.8437C-0.393715 79.1212 -0.3596 76.1787 0.36392 73.6961C0.81452 72.1475 1.56789 70.6968 2.52737 69.381C6.27716 64.2412 20.395 45.638 34.8995 36.1363C35.633 35.6565 36.5427 35.4805 37.4027 35.692C39.1312 36.1178 42.1731 37.296 45.1056 40.5507C45.8007 41.3215 45.7139 42.4911 44.935 43.1824L40.9308 46.7367C40.1191 47.4563 39.036 47.8623 37.9372 47.7672C37.2336 47.7061 36.4916 47.4421 35.9187 46.7537C34.9635 45.6039 36.1206 44.8673 37.1198 44.4769C37.967 44.1462 38.9279 44.1618 39.7382 44.5678L39.8178 44.6075C40.4802 44.9425 41.3259 44.7807 41.741 44.1817L41.7353 44.1802Z" fill="#69B9DC"/>
<path d="M111.893 73.5843C112.771 73.5701 115.062 73.326 118.315 71.4779C118.536 71.3515 118.824 71.3998 118.977 71.5999C119.426 72.189 120.221 73.6723 120.316 76.8689C120.326 77.1883 120.205 77.4991 119.978 77.7319C119.31 78.4161 117.868 80.0641 117.369 81.9959C117.341 82.1081 117.187 82.1322 117.128 82.0314L116.792 81.4594C116.481 80.9285 115.955 80.5438 115.34 80.3976L113.766 80.0215C113.298 79.9093 112.893 79.6326 112.636 79.2408C112.067 78.3763 111.232 76.6205 111.453 73.9789C111.472 73.7589 111.662 73.5886 111.893 73.5843Z" fill="#69B9DC"/>
<path d="M120.384 81.2158C120.506 80.6239 120.842 79.4799 121.804 78.5189C122.425 77.8986 122.741 77.0498 122.741 76.1882V74.2961C122.741 74.1342 122.912 74.0249 123.066 74.0888C124.08 74.5061 127.177 76.0377 128.28 79.5153C128.36 79.768 128.204 80.0334 127.935 80.0874L120.711 81.5281C120.516 81.5664 120.343 81.4032 120.381 81.2158H120.384Z" fill="#69B9DC"/>
<path d="M0 80.5864C0 80.5864 12.1449 72.8789 52.4544 79.6723C52.4544 79.6723 71.7265 82.9384 83.128 85.1584C94.5294 87.3799 132.758 93.2578 144.995 77.3203C144.995 77.3203 139.047 103.969 115.865 107.627C115.865 107.627 98.6005 110.109 69.0115 97.1768C35.2179 81.5332 0 80.5864 0 80.5864Z" fill="#0092CB"/>
<path d="M0.608398 82.0957C0.608398 82.0957 32.3935 84.9644 73.1139 104.167C118.11 125.133 142.643 97.799 142.643 97.799C142.643 97.799 136.74 118.961 114.548 133.559C114.548 133.559 91.543 133.624 73.7635 118.994C42.139 90.7756 0.608398 82.0957 0.608398 82.0957Z" fill="#69B9DC"/>
<path d="M108.369 136.412C97.7717 142.456 85.5557 145.901 72.5508 145.901C36.2541 145.901 6.1022 119.071 0.0766602 83.7793C1.7753 84.374 31.5007 94.8112 38.8809 98.7444C46.4842 102.793 56.3918 111.285 56.3918 111.285C56.3918 111.285 80.855 137.248 108.369 136.412Z" fill="#0092CB"/>
<path d="M208.172 66.3367C207.304 66.9384 206.339 67.4253 205.284 67.794C204.224 68.1627 203.21 68.4201 202.238 68.5696C201.266 68.7192 200.266 68.8131 199.235 68.8514C198.207 68.8896 197.218 68.9175 196.274 68.9348C195.03 68.9348 193.622 68.7992 192.058 68.5244C190.493 68.2496 188.73 67.6479 186.765 66.7158C184.804 65.7837 182.964 64.4202 181.25 62.6325L182.525 61.6447C184.846 64.2254 187.319 66.0062 189.943 66.9871C188.849 66.2149 187.696 65.1645 186.49 63.8359C185.281 62.5073 184.452 61.3525 183.999 60.3752L185.779 59.3283C186.403 61.0986 187.25 62.5281 188.326 63.6098C189.403 64.695 190.539 65.495 191.734 66.0132C192.932 66.5315 194.016 66.8584 194.988 66.9871C195.96 67.1192 196.538 67.1958 196.726 67.2131C198.894 67.2131 200.754 67.0775 202.308 66.8028C203.862 66.5315 205.336 65.9123 206.733 64.9524C209.224 63.2933 210.471 60.9769 210.471 57.9996C210.433 56.4727 210.06 55.0258 209.353 53.6624C208.646 52.2955 207.559 50.9912 206.092 49.7495C204.628 48.5043 202.744 47.3183 200.437 46.1879C200.155 46.0384 199.019 45.4958 197.037 44.5636C195.051 43.6315 193.427 42.7515 192.159 41.9203C190.894 41.0925 189.852 40.1395 189.041 39.0647C188.229 37.99 187.755 36.7761 187.622 35.4197C187.622 33.9867 187.953 32.7171 188.615 31.6041C189.277 30.4911 190.169 29.6356 191.295 29.0304C192.42 28.4287 193.692 28.126 195.11 28.126C195.904 28.126 196.772 28.2478 197.719 28.4947C194.685 28.7973 192.584 29.5173 191.417 30.6581C190.249 31.7989 189.664 33.3119 189.664 35.1936C189.72 36.4005 190.03 37.437 190.598 38.303C191.162 39.1691 191.894 39.9065 192.789 40.5082C193.685 41.1099 195.04 41.8264 196.859 42.6576C198.678 43.4854 199.887 44.0524 200.493 44.3549C204.047 46.0523 206.966 48.0731 209.255 50.4173C211.541 52.7616 212.687 55.1998 212.687 57.7249C212.687 58.8761 212.611 59.8361 212.461 60.6082C212.311 61.3803 211.903 62.2534 211.241 63.2238C210.579 64.1941 209.559 65.2341 208.179 66.3471L208.172 66.3367ZM208.517 57.3771C208.517 58.6779 208.318 59.7004 207.918 60.4447C207.517 61.1891 206.587 62.3055 205.12 63.7942C205.817 62.7577 206.263 61.909 206.451 61.2516C206.639 60.5908 206.733 59.8778 206.733 59.1022V57.8292C206.733 56.3023 206.294 54.9702 205.419 53.8293C204.541 52.6885 203.346 51.659 201.827 50.7338C200.312 49.8121 197.929 48.5113 194.688 46.8348C193.615 46.2888 192.378 45.6419 190.985 44.8976C189.591 44.1532 188.406 43.3846 187.434 42.595C186.462 41.802 185.63 40.8038 184.933 39.6003C184.236 38.3934 183.766 36.9431 183.518 35.2492C183.518 33.4962 183.985 31.8442 184.919 30.2894C185.853 28.7347 187.298 27.4826 189.26 26.5296C191.222 25.5766 193.58 25.0931 196.333 25.0723C199.374 25.0723 202.249 25.4827 204.959 26.3C207.67 27.1208 209.628 27.8513 210.841 28.4912C211.105 27.6808 211.311 27.1521 211.464 26.9087L212.68 27.3887C212.604 27.5765 212.537 27.7226 212.482 27.8269C212.426 27.9313 212.36 28.0773 212.283 28.2652C212.266 28.3034 212.213 28.4252 212.126 28.6339C212.043 28.8425 211.963 29.0582 211.886 29.2843C211.754 29.6043 211.611 30.0286 211.461 30.5572C210.722 30.0877 209.694 29.5625 208.377 28.9886C207.06 28.4147 205.879 27.9938 204.838 27.7295C206.071 28.5399 207.179 29.406 208.165 30.3312C208.336 30.519 208.562 30.7555 208.848 31.0372C209.133 31.3189 209.464 31.6494 209.844 32.025C209.998 32.1746 210.168 32.3311 210.356 32.4911C210.545 32.6511 210.708 32.7972 210.841 32.9293C210.405 34.5884 210.151 35.9831 210.078 37.1135L209.029 36.6335V35.1936C209.046 34.9849 209.06 34.804 209.071 34.644C209.081 34.484 209.085 34.2615 209.085 33.9797C209.085 33.7919 209.123 33.6215 209.2 33.4719C207.897 31.7398 206.499 30.3625 205.008 29.3468C203.517 28.3278 202.075 27.6426 200.677 27.2843C199.28 26.9261 197.855 26.7487 196.402 26.7487C194.382 26.7487 192.57 27.0409 190.967 27.6252C189.361 28.2095 188.079 29.1243 187.117 30.366C186.156 31.6111 185.675 33.145 185.675 34.9745C185.825 36.5188 186.211 37.8404 186.835 38.9326C187.459 40.0247 188.197 40.922 189.058 41.6177C189.915 42.3133 190.88 42.9498 191.946 43.5272C193.012 44.101 194.131 44.6923 195.301 45.294C197.831 46.6122 199.817 47.6696 201.263 48.4591C202.709 49.2487 203.984 50.0695 205.099 50.9182C206.214 51.7668 207.06 52.7129 207.646 53.7598C208.231 54.8067 208.524 56.0171 208.524 57.3909L208.517 57.3771Z" fill="#4A80A2"/>
<path d="M240.853 67.1536C243.1 67.098 245.152 66.7015 247.009 65.9676C248.87 65.2337 250.507 64.1346 251.922 62.6738C253.336 61.213 254.437 59.387 255.221 57.1888C256.005 54.9941 256.396 52.4655 256.396 49.5995C256.396 48.7509 256.378 48.1004 256.34 47.6483C256.246 45.7249 255.915 43.638 255.35 41.3877C254.782 39.1373 253.643 36.7757 251.925 34.3062C250.208 31.8368 247.755 29.8577 244.563 28.3691C247.413 28.8595 249.901 30.056 252.023 31.9585C254.145 33.861 255.761 36.1844 256.866 38.9252C257.97 41.6659 258.57 44.6119 258.664 47.7596C258.664 51.3038 258.193 54.4028 257.249 57.0601C256.305 59.7174 254.988 61.9086 253.298 63.6303C251.608 65.3554 249.682 66.6319 247.521 67.4597C245.361 68.2875 243.079 68.7223 240.686 68.7605C236.721 68.7605 233.139 67.7762 229.941 65.8076C226.742 63.839 224.227 61.1051 222.394 57.6096C220.561 54.1141 219.648 50.2465 219.648 46.0066C219.763 43.405 220.154 41.1407 220.823 39.2104C221.492 37.28 222.251 35.7149 223.101 34.5184C223.951 33.3219 224.77 32.3654 225.564 31.6489C224.735 33.2524 224.038 34.748 223.484 36.1427C222.927 37.5374 222.516 39.0121 222.255 40.5668C221.99 42.1216 221.857 43.8606 221.857 45.7805C221.896 49.7769 222.711 53.4011 224.307 56.6636C225.902 59.9226 228.132 62.486 231.003 64.3502C233.871 66.2145 237.156 67.1501 240.856 67.1501L240.853 67.1536ZM242.295 25.0684C246.372 25.2005 249.95 26.2822 253.026 28.3204C256.103 30.3551 258.476 33.0959 260.148 36.5462C261.817 39.993 262.653 43.8084 262.653 47.9926C262.559 51.0255 262.078 53.6307 261.211 55.808C260.343 57.9853 259.416 59.6269 258.437 60.7399C257.455 61.8529 256.521 62.7016 255.636 63.2825C258.277 59.9678 259.827 55.8497 260.28 50.9317C260.357 49.8013 260.395 48.9526 260.395 48.3891C260.395 45.4327 259.939 42.6572 259.023 40.066C258.106 37.4748 256.828 35.2036 255.187 33.2558C253.546 31.3046 251.591 29.7499 249.326 28.5917C247.062 27.4335 244.703 26.8144 242.246 26.7413C238.717 26.7413 235.829 27.3917 233.581 28.6925C231.334 29.9934 229.651 31.6211 228.526 33.5828C227.404 35.541 226.659 37.4922 226.289 39.433C225.92 41.3738 225.739 43.2381 225.739 45.0293C225.965 54.2046 229.711 60.9417 236.978 65.2372C234.787 64.7085 232.85 63.7903 231.16 62.4825C229.47 61.1712 228.063 59.5887 226.941 57.7348C225.819 55.8775 224.958 53.8533 224.362 51.6586C223.767 49.4639 223.471 47.1961 223.471 44.8623C223.547 41.8294 224.136 38.8313 225.24 35.8749C226.345 32.9185 228.3 30.3759 231.101 28.2578C233.902 26.1396 237.637 25.0788 242.299 25.0788L242.295 25.0684Z" fill="#4A80A2"/>
<path d="M305.86 65.234C306.236 65.7035 306.964 65.9818 308.041 66.0687C309.118 66.1522 309.682 66.2044 309.741 66.2252C309.95 66.2809 310.25 66.3678 310.647 66.4791C311.044 66.5939 311.344 66.66 311.553 66.6774C311.591 66.6774 311.752 66.747 312.034 66.8896C312.316 67.0322 312.525 67.1017 312.657 67.1017L312.288 68.3747C312.173 68.3747 311.985 68.3121 311.724 68.1904C311.459 68.0687 311.243 68.006 311.072 68.006C310.863 67.9887 310.375 67.9399 309.598 67.8634C308.825 67.7869 308.316 67.7417 308.069 67.7209C307.672 67.7209 307.351 67.7243 307.107 67.7347C306.86 67.7452 306.598 67.7591 306.313 67.7765C305.633 67.7765 305.153 67.5887 304.87 67.213L277.576 32.644V53.4744C277.576 54.9457 277.67 56.5456 277.858 58.2777C277.896 58.7473 277.973 59.4081 278.084 60.2568C278.199 61.1054 278.273 61.7454 278.311 62.1802C278.388 62.7471 278.433 63.1541 278.454 63.4115C278.471 63.6654 278.548 64.1245 278.68 64.7818C278.757 65.3105 278.851 65.7348 278.962 66.0548C279.245 66.1696 279.576 66.2252 279.952 66.2252C280.178 66.2426 280.391 66.26 280.589 66.267C280.788 66.2774 281.018 66.3017 281.283 66.3365C281.812 66.3922 282.255 66.4687 282.614 66.5626L282.558 68.0026C282.199 67.8878 281.83 67.8321 281.454 67.8321C280.736 67.7556 280.189 67.7174 279.813 67.7174C279.548 67.6791 278.785 67.6617 277.52 67.6617L276.36 58.4204L274.945 67.5504C274.736 67.6061 274.562 67.6478 274.423 67.6791C274.28 67.7069 274.067 67.7591 273.785 67.8356C273.541 67.853 273.276 67.9052 272.991 67.9921C272.708 68.0756 272.433 68.1486 272.168 68.2043C272.036 68.2599 271.858 68.333 271.632 68.4165C271.405 68.5 271.224 68.566 271.095 68.6147C270.963 68.6599 270.82 68.7121 270.67 68.7712C270.555 68.8095 270.458 68.8373 270.374 68.8547C270.29 68.8721 270.172 68.8999 270.019 68.9382L269.963 67.4982C270.078 67.4809 270.207 67.4496 270.36 67.4148C270.51 67.3765 270.635 67.3487 270.729 67.3313C271.012 67.1991 271.311 67.0774 271.621 66.9626C271.931 66.8478 272.172 66.7539 272.343 66.6809C272.531 66.6044 272.705 66.5383 272.865 66.4826C273.025 66.427 273.238 66.3609 273.503 66.2844C273.541 66.0966 273.572 65.9539 273.6 65.86C273.628 65.7661 273.67 65.6166 273.729 65.4079C273.938 64.5036 274.099 63.6549 274.21 62.8654C274.287 62.281 274.346 61.8428 274.395 61.5507C274.44 61.2585 274.513 60.7924 274.607 60.1525C274.851 58.8343 275.088 57.5091 275.315 56.1804C275.541 54.8518 275.656 53.6518 275.656 52.5771V30.0493C275.109 29.0128 274.297 28.3172 273.221 27.959C272.844 27.8477 272.248 27.7503 271.437 27.6772C271.228 27.639 270.973 27.6216 270.674 27.6216L270.729 26.1816C270.994 26.1816 271.2 26.1851 271.353 26.1956C271.503 26.206 271.663 26.2199 271.834 26.2373C272.248 26.2756 272.583 26.3138 272.837 26.3521C273.092 26.3903 273.37 26.4286 273.673 26.4668C274.409 26.5433 275.308 26.8355 276.363 27.3433L305.867 65.2479L305.86 65.234ZM284.938 33.1831C285.053 33.3327 285.206 33.5379 285.405 33.7918C285.603 34.0457 285.833 34.3413 286.098 34.6822L286.948 35.67L304.926 58.1699L305.153 39.882C305.153 39.2211 304.926 37.8855 304.473 35.8682C304.02 33.8509 303.783 32.7205 303.766 32.477C303.689 31.9866 303.539 31.138 303.313 29.9345C303.257 29.7259 303.215 29.5763 303.184 29.4824C303.156 29.3885 303.121 29.2459 303.086 29.0581C302.877 28.9815 302.703 28.9224 302.564 28.8737C302.421 28.8285 302.208 28.7555 301.926 28.6615C301.623 28.5294 301.341 28.4181 301.076 28.3207C300.811 28.2268 300.547 28.1224 300.282 28.0111C300.188 27.9937 300.066 27.9659 299.912 27.9277C299.763 27.8894 299.637 27.8616 299.543 27.8442L299.599 26.4042C299.749 26.4425 299.867 26.4703 299.954 26.4877C300.038 26.5051 300.128 26.5364 300.223 26.5712C300.752 26.759 301.261 26.9572 301.752 27.1659C302.149 27.2598 302.473 27.3364 302.728 27.392C302.982 27.4477 303.194 27.486 303.365 27.5033C303.574 27.559 303.752 27.6007 303.902 27.632C304.052 27.6599 304.261 27.712 304.525 27.7885L305.912 36.9464L307.072 27.6772C308.354 27.6772 309.128 27.6598 309.393 27.6216C309.79 27.6216 310.326 27.5833 311.006 27.5068C311.403 27.5068 311.769 27.4511 312.11 27.3364L312.166 28.7763C311.807 28.8702 311.365 28.9467 310.835 29.0024C310.741 29.0198 310.609 29.0372 310.438 29.0441C310.267 29.0546 310.093 29.0615 309.915 29.072C309.734 29.0824 309.598 29.0963 309.504 29.1137C309.128 29.1137 308.797 29.1694 308.515 29.2841C308.4 29.6041 308.306 30.0284 308.233 30.5571C307.968 31.8962 307.818 32.724 307.78 33.044C307.703 33.9691 307.633 34.7587 307.567 35.4195C307.501 36.0804 307.449 36.6264 307.41 37.0577C307.222 38.7933 307.128 40.3932 307.128 41.861L306.846 63.5123L283.401 33.6944C282.495 32.5466 281.666 31.3675 280.91 30.1606C280.569 29.6528 280.293 29.2389 280.074 28.9154C279.858 28.5955 279.711 28.2929 279.635 28.0111C279.485 27.5972 279.37 27.1173 279.293 26.5712C279.502 26.5538 279.694 26.5399 279.875 26.5295C280.053 26.519 280.286 26.5155 280.569 26.5155C281.513 26.439 282.23 26.4042 282.722 26.4042C282.91 26.366 283.119 26.3382 283.345 26.3208C283.572 26.3034 283.77 26.2895 283.941 26.279C284.112 26.2686 284.3 26.2547 284.509 26.2373H285.331L285.276 27.3955C284.993 27.5068 284.739 27.5659 284.513 27.5659C284.324 27.6042 284.157 27.6425 284.018 27.6807C283.875 27.719 283.694 27.7572 283.467 27.7955C283.07 27.9068 282.812 28.0111 282.69 28.1051C282.568 28.199 282.506 28.425 282.506 28.7833C282.506 28.9711 282.575 29.2215 282.718 29.5311C282.861 29.8406 283.025 30.1571 283.213 30.4771C283.401 30.7971 283.554 31.0614 283.666 31.2701C283.875 31.684 284.297 32.3275 284.941 33.1935L284.938 33.1831Z" fill="#4A80A2"/>
<path d="M358.467 67.8359C358.484 67.5542 358.547 66.9142 358.651 65.9125C358.756 64.9143 358.808 64.1317 358.808 63.5648C355.24 67.0325 350.655 68.7646 345.049 68.7646C341.443 68.6498 338.126 67.6794 335.098 65.8534C332.067 64.0274 329.635 61.5335 327.792 58.3789C325.953 55.2242 324.967 51.7218 324.834 47.8785C324.834 44.9394 325.193 42.3343 325.911 40.0631C326.629 37.7919 327.44 35.9972 328.346 34.679C329.252 33.3608 330.113 32.3139 330.924 31.5417C328.378 35.6494 327.102 40.1918 327.102 45.1655C327.102 46.1081 327.158 47.0506 327.273 47.9932C327.5 50.5183 328.071 52.9357 328.987 55.2416C329.904 57.5511 331.134 59.6102 332.68 61.4188C334.227 63.2274 336.06 64.6465 338.175 65.6725C340.29 66.6986 342.6 67.2133 345.112 67.2133C348.453 67.2133 351.146 66.6325 353.195 65.4743C355.244 64.316 357.118 62.6326 358.815 60.4275C358.832 59.7493 358.846 59.1267 358.857 58.5632C358.867 57.9998 358.871 57.2728 358.871 56.3859V53.3635C358.7 53.3635 357.327 53.1513 354.752 52.7269C352.174 52.3026 350.613 52.0174 350.066 51.8644L350.463 50.1392C350.767 50.1949 351.732 50.3479 353.366 50.5914C355 50.8349 356.47 51.0331 357.784 51.1861C359.097 51.3357 360.111 51.4122 360.829 51.4122C360.846 52.24 360.867 53.1513 360.884 54.1391C360.902 55.1269 360.912 55.8955 360.912 56.4416C360.912 57.1024 360.888 57.7598 360.843 58.4207C360.794 59.0815 360.773 59.6554 360.773 60.1458C360.773 60.7301 360.77 61.1336 360.759 61.3596C360.749 61.5857 360.735 61.8153 360.717 62.0518C360.7 62.2883 360.679 62.5457 360.661 62.8274C360.644 63.1091 360.623 63.4117 360.606 63.7317C360.606 64.1839 360.588 64.9386 360.55 65.9925C360.512 67.0464 360.494 67.6585 360.494 67.8289H358.484L358.467 67.8359ZM359.853 37.4511L358.467 36.8285C358.561 36.3207 358.717 35.7224 358.933 35.0337C359.149 34.3451 359.261 33.8999 359.261 33.6912C358.77 32.8043 358.104 31.966 357.264 31.1765C356.425 30.3835 355.47 29.6635 354.404 29.0131C353.338 28.3627 352.212 27.8445 351.035 27.4584C349.854 27.0724 348.701 26.8497 347.565 26.7941C347.338 26.7767 347.129 26.7628 346.941 26.7524C346.753 26.7419 346.506 26.7384 346.206 26.7384C343.394 26.7384 340.99 27.2741 339.001 28.3488C337.008 29.4235 335.422 30.8774 334.245 32.7173C333.064 34.5538 332.224 36.5954 331.726 38.8353C331.224 41.0787 330.977 43.3778 330.977 45.7324C331.147 50.2366 332.161 54.0938 334.022 57.3076C335.882 60.5214 338.52 63.1648 341.934 65.2343C339.631 64.6882 337.635 63.7282 335.945 62.3509C334.255 60.9771 332.886 59.3702 331.841 57.5302C330.796 55.6903 330.019 53.746 329.52 51.6939C329.019 49.6418 328.771 47.6524 328.771 45.729C328.771 44.0142 328.942 42.0909 329.28 39.9622C329.621 37.8336 330.388 35.6251 331.586 33.333C332.785 31.0444 334.701 29.1035 337.335 27.5106C339.969 25.9176 343.38 25.1211 347.572 25.1211C349.666 25.1211 351.652 25.302 353.533 25.6567C355.411 26.015 357.822 26.6828 360.766 27.6636C360.766 27.5697 360.829 27.4514 360.951 27.3088C361.073 27.1662 361.135 27.0515 361.135 26.9541C361.135 26.8984 361.181 26.7836 361.278 26.6132C361.372 26.4428 361.421 26.2933 361.421 26.1611C361.477 26.0846 361.54 25.9906 361.606 25.8793C361.672 25.768 361.707 25.6428 361.707 25.5106L363.093 26.1611C363.076 26.2167 363.041 26.321 362.992 26.4706C362.947 26.6202 362.923 26.7072 362.923 26.7245C362.923 26.8567 362.857 27.0445 362.724 27.288C362.592 27.5349 362.526 27.6949 362.526 27.768C362.111 28.8984 361.836 29.5766 361.703 29.8027C360.439 29.1801 359.32 28.6966 358.348 28.3453C357.376 27.9975 356.369 27.7297 355.331 27.5384C356.954 28.7071 358.947 30.5991 361.306 33.2182C360.682 34.5364 360.202 35.9415 359.864 37.4302L359.853 37.4511ZM365.233 67.6655H363.194C362.891 65.669 362.647 63.4743 362.459 61.0814C362.442 60.6466 362.428 59.9406 362.418 58.9597C362.407 57.9789 362.404 57.1824 362.404 56.5703V54.633C362.404 54.3512 362.421 53.833 362.459 53.0782C362.498 52.3235 362.515 51.7878 362.515 51.4679C363.703 51.3357 364.703 51.1896 365.515 51.0296C366.327 50.8697 367.118 50.6296 367.895 50.3097V51.6383C367.686 51.7322 367.393 51.8609 367.017 52.0209C366.64 52.1809 366.243 52.3652 365.828 52.5704C365.734 52.5704 365.612 52.6261 365.459 52.7409C365.306 52.8556 365.177 52.9113 365.062 52.9113L364.609 53.1374C364.477 53.4191 364.372 53.9373 364.299 54.6921C364.261 56.1251 364.243 57.7737 364.243 59.638C364.431 62.7648 364.762 65.443 365.233 67.6655Z" fill="#4A80A2"/>
<path d="M406.258 67.4388C406.541 67.3066 407.203 66.9971 408.241 66.5067C408.373 66.451 408.516 66.3884 408.666 66.3223C408.816 66.2563 408.931 66.2041 409.004 66.1658C409.08 66.1658 409.154 66.1276 409.23 66.051C409.269 65.6545 409.286 65.0911 409.286 64.3537C409.363 63.0912 409.401 61.1504 409.401 58.5313V52.5107C409.401 49.8917 409.324 46.4136 409.175 42.0798C409.119 39.6695 408.997 37.3705 408.805 35.1827C408.635 31.8472 408.485 29.6908 408.352 28.7099C408.258 28.0143 408.182 27.5517 408.126 27.3257C407.391 27.0996 406.872 26.9569 406.568 26.9013C406.38 26.863 406.22 26.8422 406.088 26.8317C405.955 26.8213 405.823 26.8074 405.69 26.79C405.596 26.7726 405.509 26.7587 405.436 26.7483C405.359 26.7378 405.248 26.7344 405.098 26.7344V25.4057C405.987 25.4822 406.861 25.517 407.732 25.517H410.45C410.77 28.7586 411.014 33.1306 411.185 38.633C411.356 44.1354 411.439 48.8935 411.439 52.9072V67.4353C409.495 67.6614 407.767 68.1031 406.258 68.764V67.4353V67.4388ZM418.63 25.1275V26.5674C418.101 26.717 417.111 26.8491 415.659 26.9639C415.526 28.8665 415.443 30.7377 415.404 32.5741C415.366 34.4106 415.341 36.5079 415.335 38.8626C415.324 41.2172 415.321 43.725 415.321 46.3823L417.867 43.8085L425.794 55.1159C425.888 55.1715 425.979 55.2584 426.062 55.3697C426.146 55.4845 426.254 55.6236 426.386 55.7941C426.463 55.888 426.571 56.048 426.71 56.274C426.853 56.5001 426.978 56.6879 427.093 56.8375C427.264 57.0253 427.438 57.2444 427.616 57.4879C427.794 57.7314 428.027 58.0166 428.309 58.3366C429.083 59.4496 430.01 60.6634 431.083 61.9817C432.253 63.4146 433.156 64.4685 433.786 65.1467C434.417 65.825 435.023 66.3954 435.598 66.8579C436.173 67.3205 436.832 67.731 437.567 68.0892C436.887 68.0336 436.048 67.7797 435.048 67.3275C434.048 66.8754 432.637 65.7867 430.814 64.0616C428.992 62.3364 426.797 59.7417 424.233 56.274L417.467 46.9457L415.314 48.9248C415.314 49.6204 415.31 50.1978 415.3 50.6499C415.289 51.1021 415.275 51.6029 415.258 52.149V58.1696C415.22 59.1887 415.202 60.6947 415.202 62.6912C415.202 64.0094 415.22 65.0181 415.258 65.7172C416.92 65.9606 418.174 66.2076 419.024 66.451L418.968 67.891C416.93 67.5501 415.512 67.3831 414.721 67.3831C414.119 67.3831 413.655 67.4006 413.335 67.4388C413.335 66.3641 413.331 65.4945 413.321 64.8233C413.31 64.1555 413.296 63.4251 413.279 62.6321V58.3366C413.261 57.3557 413.244 56.4514 413.237 55.6236C413.227 54.7959 413.202 53.7385 413.167 52.4586V40.3477C413.167 39.7356 413.171 38.96 413.181 38.0174C413.192 37.0748 413.206 36.3688 413.223 35.8992C413.223 32.8107 413.261 30.5116 413.338 29.0021C413.394 27.6074 413.47 26.4492 413.565 25.524C415.735 25.4475 417.425 25.3153 418.634 25.1275H418.63ZM419.028 42.4241C419.763 41.5581 420.376 40.8242 420.867 40.219C421.529 39.5025 422.421 38.4661 423.543 37.1096C424.665 35.7531 425.696 34.2923 426.63 32.7271C427.564 31.162 428.445 29.2595 429.278 27.0161C429.128 26.9778 428.989 26.9535 428.867 26.9465C428.745 26.9361 428.616 26.9222 428.484 26.9048C428.236 26.9048 427.849 26.8665 427.323 26.7935C427.135 26.7552 426.968 26.717 426.829 26.6787C426.686 26.6405 426.484 26.6022 426.219 26.5639C426.107 26.5639 425.992 26.5466 425.881 26.5083V25.0684C427.881 25.371 429.846 25.5205 431.769 25.5205C430.769 28.3099 429.55 30.9011 428.118 33.2941L435.198 25.5205C436.574 25.4648 437.776 25.3118 438.793 25.0684V26.4526C438.096 26.7552 437.264 26.9048 436.302 26.9048L434.86 28.4873L421.411 42.4207L429.989 54.3472C430.724 55.3836 431.626 56.6358 432.692 58.107C433.759 59.5783 434.985 61.0356 436.372 62.4894C437.758 63.9398 439.232 65.1363 440.79 66.0789C442.347 67.0214 443.946 67.491 445.587 67.491V68.7048C444.096 68.7048 442.73 68.4962 441.497 68.0823C440.26 67.6684 439.124 67.098 438.086 66.371C437.048 65.6476 436.023 64.7641 435.013 63.7276C434.002 62.6912 432.94 61.4947 431.828 60.1382C431.431 59.5748 430.978 58.9626 430.47 58.3018C429.961 57.6409 429.564 57.1331 429.281 56.7749C429.055 56.4932 428.825 56.1871 428.588 55.8566C428.351 55.5262 428.16 55.2758 428.006 55.1089L419.031 42.4172L419.028 42.4241Z" fill="#4A80A2"/>
<path d="M470.049 67.1536C472.296 67.098 474.349 66.7015 476.206 65.9676C478.066 65.2337 479.704 64.1346 481.118 62.6738C482.533 61.213 483.634 59.387 484.418 57.1888C485.202 54.9941 485.592 52.4655 485.592 49.5995C485.592 48.7509 485.574 48.1004 485.536 47.6483C485.442 45.7249 485.111 43.638 484.547 41.3877C483.982 39.1373 482.839 36.7757 481.122 34.3062C479.404 31.8368 476.951 29.8577 473.76 28.3691C476.61 28.8595 479.097 30.056 481.219 31.9585C483.341 33.861 484.958 36.1844 486.062 38.9252C487.167 41.6659 487.766 44.6119 487.86 47.7596C487.86 51.3038 487.39 54.4028 486.445 57.0601C485.501 59.7174 484.184 61.9086 482.494 63.6303C480.805 65.3554 478.878 66.6319 476.718 67.4597C474.558 68.2875 472.275 68.7223 469.882 68.7605C465.917 68.7605 462.335 67.7762 459.137 65.8076C455.938 63.839 453.423 61.1051 451.59 57.6096C449.761 54.1141 448.845 50.2465 448.845 46.0066C448.956 43.405 449.35 41.1407 450.019 39.2104C450.688 37.28 451.447 35.7149 452.297 34.5184C453.148 33.3219 453.966 32.3654 454.761 31.6489C453.932 33.2524 453.235 34.748 452.681 36.1427C452.123 37.5374 451.712 39.0121 451.447 40.5668C451.183 42.1216 451.05 43.8606 451.05 45.7805C451.089 49.7769 451.904 53.4011 453.5 56.6636C455.095 59.9226 457.325 62.486 460.196 64.3502C463.063 66.2145 466.349 67.1501 470.049 67.1501V67.1536ZM471.492 25.0684C475.568 25.2005 479.146 26.2822 482.223 28.3204C485.299 30.3551 487.672 33.0959 489.344 36.5462C491.013 39.993 491.849 43.8084 491.849 47.9926C491.755 51.0255 491.274 53.6307 490.407 55.808C489.539 57.9853 488.613 59.6269 487.634 60.7399C486.651 61.8529 485.717 62.7016 484.832 63.2825C487.473 59.9678 489.024 55.8497 489.477 50.9317C489.553 49.8013 489.592 48.9526 489.592 48.3891C489.592 45.4327 489.135 42.6572 488.219 40.066C487.303 37.4748 486.024 35.2036 484.383 33.2558C482.742 31.3046 480.787 29.7499 478.523 28.5917C476.258 27.4335 473.899 26.8144 471.443 26.7413C467.913 26.7413 465.025 27.3917 462.778 28.6925C460.53 29.9934 458.848 31.6211 457.722 33.5828C456.6 35.541 455.855 37.4922 455.485 39.433C455.116 41.3738 454.935 43.2381 454.935 45.0293C455.161 54.2046 458.907 60.9417 466.175 65.2372C463.983 64.7085 462.046 63.7903 460.356 62.4825C458.666 61.1712 457.259 59.5887 456.137 57.7348C455.015 55.8775 454.155 53.8533 453.562 51.6586C452.966 49.4639 452.67 47.1961 452.67 44.8623C452.747 41.8294 453.336 38.8313 454.44 35.8749C455.545 32.9185 457.499 30.3759 460.301 28.2578C463.102 26.1396 466.837 25.0788 471.499 25.0788L471.492 25.0684Z" fill="#4A80A2"/>
<path d="M501.42 27.4444C500.42 27.0305 499.72 26.7209 499.326 26.5122V25.1836C500.194 25.5418 501.055 25.8235 501.905 26.0322C502.755 26.2409 503.699 26.4009 504.737 26.5122C504.776 27.1348 504.793 28.0774 504.793 29.3399V40.9847C504.793 45.715 504.702 50.5808 504.525 55.5824C504.344 60.5839 504.103 64.5385 503.804 67.4393H500.971C500.044 67.4393 499.11 67.4949 498.17 67.6097V66.2811C498.285 66.2637 498.382 66.2498 498.466 66.2393C498.549 66.2289 498.65 66.2254 498.762 66.2254C498.988 66.1872 499.17 66.1628 499.299 66.1559C499.431 66.1454 499.563 66.1315 499.696 66.1141C500.037 66.0202 500.257 65.968 500.361 65.9576C500.466 65.9472 500.602 65.9263 500.772 65.8881C500.943 65.8498 501.142 65.8115 501.368 65.7767C501.612 63.9681 501.835 61.6065 502.034 58.6953C502.232 55.7841 502.375 52.8486 502.459 49.8922C502.542 46.9358 502.588 44.0976 502.588 41.3847C502.605 40.7238 502.615 39.7222 502.615 38.3761C502.615 37.0301 502.626 36.0249 502.643 35.3675C502.643 32.7868 502.626 30.846 502.588 29.5452C502.588 29.1695 502.584 28.8635 502.574 28.6269C502.563 28.3904 502.549 28.1331 502.532 27.8513C502.476 27.8339 502.424 27.82 502.375 27.8096C502.326 27.7992 502.284 27.7957 502.246 27.7957C502.114 27.7191 501.978 27.6496 501.835 27.5835C501.692 27.5174 501.556 27.4757 501.424 27.4548L501.42 27.4444ZM510.225 27.8965H508.95V55.7945C508.967 56.3232 508.981 56.8136 508.991 57.2658C509.002 57.7179 509.005 58.3127 509.005 59.0466V63.5125C509.061 63.9264 509.089 64.5976 509.089 65.5193C510.012 65.5576 511.364 65.575 513.137 65.575C515.402 65.5576 517.364 65.4011 519.026 65.109C520.688 64.8168 521.924 64.5003 522.736 64.1629C523.548 63.822 524.189 63.5021 524.663 63.2029C524.663 62.8447 524.659 62.563 524.649 62.3543C524.639 62.1456 524.625 61.9125 524.607 61.6482C524.625 61.3073 524.639 61.0047 524.649 60.73C524.659 60.4587 524.663 60.1144 524.663 59.697H525.879C525.879 61.8465 526.039 63.4012 526.36 64.3611C526.172 64.4551 526.029 64.542 525.935 64.615C525.349 64.7855 524.99 64.8794 524.858 64.8968C524.611 64.9733 524.245 65.0672 523.754 65.1785C523.262 65.2898 522.893 65.3872 522.649 65.4602C521.837 65.5924 521.235 65.7141 520.837 65.8289C520.384 65.9228 520.04 65.9993 519.803 66.055C519.566 66.1106 519.297 66.1698 518.994 66.2254H526.356C526.433 66.7332 526.527 67.1958 526.638 67.6097C526.677 67.7975 526.701 67.9679 526.708 68.1175C526.719 68.2671 526.733 68.427 526.75 68.5975C526.767 68.6357 526.781 68.6775 526.792 68.7262C526.802 68.7714 526.806 68.8236 526.806 68.8827H525.868C525.698 68.6566 525.548 68.2706 525.416 67.7245H524.792C524.545 67.7071 524.318 67.6897 524.112 67.6827C523.903 67.6723 523.639 67.6688 523.318 67.6688C522.618 67.6688 522.099 67.6514 521.761 67.6132C521.475 67.6132 521.06 67.5958 520.513 67.5575C519.966 67.5193 519.548 67.5019 519.266 67.5019C518.925 67.4636 518.322 67.4462 517.451 67.4462H506.734C506.695 66.6358 506.678 65.4393 506.678 63.8568C506.678 63.0464 506.674 62.3925 506.664 61.8917C506.654 61.3908 506.64 60.8517 506.622 60.2674C506.64 59.6657 506.654 59.1127 506.664 58.6153C506.674 58.1179 506.678 57.471 506.678 56.678C506.678 56.0171 506.674 55.4919 506.664 55.0954C506.654 54.6989 506.64 54.2676 506.622 53.7946L506.737 26.5192C508.291 26.5192 509.444 26.4809 510.204 26.4079C510.49 26.3696 510.772 26.3418 511.057 26.3244C511.343 26.307 511.629 26.2827 511.925 26.2548C512.218 26.227 512.507 26.2027 512.793 26.1853C513.305 26.074 513.845 26.0149 514.413 26.0149V27.2879C514.13 27.3818 513.817 27.4583 513.479 27.5139C513.12 27.6078 512.486 27.7018 511.58 27.7957C511.239 27.7957 510.786 27.8339 510.221 27.9069L510.225 27.8965Z" fill="#4A80A2"/>
<path d="M208.172 66.3367C207.304 66.9384 206.339 67.4253 205.284 67.794C204.224 68.1627 203.21 68.4201 202.238 68.5696C201.266 68.7192 200.266 68.8131 199.235 68.8514C198.207 68.8896 197.218 68.9175 196.274 68.9348C195.03 68.9348 193.622 68.7992 192.058 68.5244C190.493 68.2496 188.73 67.6479 186.765 66.7158C184.804 65.7837 182.964 64.4202 181.25 62.6325L182.525 61.6447C184.846 64.2254 187.319 66.0062 189.943 66.9871C188.849 66.2149 187.696 65.1645 186.49 63.8359C185.281 62.5073 184.452 61.3525 183.999 60.3752L185.779 59.3283C186.403 61.0986 187.25 62.5281 188.326 63.6098C189.403 64.695 190.539 65.495 191.734 66.0132C192.932 66.5315 194.016 66.8584 194.988 66.9871C195.96 67.1192 196.538 67.1958 196.726 67.2131C198.894 67.2131 200.754 67.0775 202.308 66.8028C203.862 66.5315 205.336 65.9123 206.733 64.9524C209.224 63.2933 210.471 60.9769 210.471 57.9996C210.433 56.4727 210.06 55.0258 209.353 53.6624C208.646 52.2955 207.559 50.9912 206.092 49.7495C204.628 48.5043 202.744 47.3183 200.437 46.1879C200.155 46.0384 199.019 45.4958 197.037 44.5636C195.051 43.6315 193.427 42.7515 192.159 41.9203C190.894 41.0925 189.852 40.1395 189.041 39.0647C188.229 37.99 187.755 36.7761 187.622 35.4197C187.622 33.9867 187.953 32.7171 188.615 31.6041C189.277 30.4911 190.169 29.6356 191.295 29.0304C192.42 28.4287 193.692 28.126 195.11 28.126C195.904 28.126 196.772 28.2478 197.719 28.4947C194.685 28.7973 192.584 29.5173 191.417 30.6581C190.249 31.7989 189.664 33.3119 189.664 35.1936C189.72 36.4005 190.03 37.437 190.598 38.303C191.162 39.1691 191.894 39.9065 192.789 40.5082C193.685 41.1099 195.04 41.8264 196.859 42.6576C198.678 43.4854 199.887 44.0524 200.493 44.3549C204.047 46.0523 206.966 48.0731 209.255 50.4173C211.541 52.7616 212.687 55.1998 212.687 57.7249C212.687 58.8761 212.611 59.8361 212.461 60.6082C212.311 61.3803 211.903 62.2534 211.241 63.2238C210.579 64.1941 209.559 65.2341 208.179 66.3471L208.172 66.3367ZM208.517 57.3771C208.517 58.6779 208.318 59.7004 207.918 60.4447C207.517 61.1891 206.587 62.3055 205.12 63.7942C205.817 62.7577 206.263 61.909 206.451 61.2516C206.639 60.5908 206.733 59.8778 206.733 59.1022V57.8292C206.733 56.3023 206.294 54.9702 205.419 53.8293C204.541 52.6885 203.346 51.659 201.827 50.7338C200.312 49.8121 197.929 48.5113 194.688 46.8348C193.615 46.2888 192.378 45.6419 190.985 44.8976C189.591 44.1532 188.406 43.3846 187.434 42.595C186.462 41.802 185.63 40.8038 184.933 39.6003C184.236 38.3934 183.766 36.9431 183.518 35.2492C183.518 33.4962 183.985 31.8442 184.919 30.2894C185.853 28.7347 187.298 27.4826 189.26 26.5296C191.222 25.5766 193.58 25.0931 196.333 25.0723C199.374 25.0723 202.249 25.4827 204.959 26.3C207.67 27.1208 209.628 27.8513 210.841 28.4912C211.105 27.6808 211.311 27.1521 211.464 26.9087L212.68 27.3887C212.604 27.5765 212.537 27.7226 212.482 27.8269C212.426 27.9313 212.36 28.0773 212.283 28.2652C212.266 28.3034 212.213 28.4252 212.126 28.6339C212.043 28.8425 211.963 29.0582 211.886 29.2843C211.754 29.6043 211.611 30.0286 211.461 30.5572C210.722 30.0877 209.694 29.5625 208.377 28.9886C207.06 28.4147 205.879 27.9938 204.838 27.7295C206.071 28.5399 207.179 29.406 208.165 30.3312C208.336 30.519 208.562 30.7555 208.848 31.0372C209.133 31.3189 209.464 31.6494 209.844 32.025C209.998 32.1746 210.168 32.3311 210.356 32.4911C210.545 32.6511 210.708 32.7972 210.841 32.9293C210.405 34.5884 210.151 35.9831 210.078 37.1135L209.029 36.6335V35.1936C209.046 34.9849 209.06 34.804 209.071 34.644C209.081 34.484 209.085 34.2615 209.085 33.9797C209.085 33.7919 209.123 33.6215 209.2 33.4719C207.897 31.7398 206.499 30.3625 205.008 29.3468C203.517 28.3278 202.075 27.6426 200.677 27.2843C199.28 26.9261 197.855 26.7487 196.402 26.7487C194.382 26.7487 192.57 27.0409 190.967 27.6252C189.361 28.2095 188.079 29.1243 187.117 30.366C186.156 31.6111 185.675 33.145 185.675 34.9745C185.825 36.5188 186.211 37.8404 186.835 38.9326C187.459 40.0247 188.197 40.922 189.058 41.6177C189.915 42.3133 190.88 42.9498 191.946 43.5272C193.012 44.101 194.131 44.6923 195.301 45.294C197.831 46.6122 199.817 47.6696 201.263 48.4591C202.709 49.2487 203.984 50.0695 205.099 50.9182C206.214 51.7668 207.06 52.7129 207.646 53.7598C208.231 54.8067 208.524 56.0171 208.524 57.3909L208.517 57.3771Z" fill="#4A80A2"/>
<path d="M240.853 67.1536C243.1 67.098 245.152 66.7015 247.009 65.9676C248.87 65.2337 250.507 64.1346 251.922 62.6738C253.336 61.213 254.437 59.387 255.221 57.1888C256.005 54.9941 256.396 52.4655 256.396 49.5995C256.396 48.7509 256.378 48.1004 256.34 47.6483C256.246 45.7249 255.915 43.638 255.35 41.3877C254.782 39.1373 253.643 36.7757 251.925 34.3062C250.208 31.8368 247.755 29.8577 244.563 28.3691C247.413 28.8595 249.901 30.056 252.023 31.9585C254.145 33.861 255.761 36.1844 256.866 38.9252C257.97 41.6659 258.57 44.6119 258.664 47.7596C258.664 51.3038 258.193 54.4028 257.249 57.0601C256.305 59.7174 254.988 61.9086 253.298 63.6303C251.608 65.3554 249.682 66.6319 247.521 67.4597C245.361 68.2875 243.079 68.7223 240.686 68.7605C236.721 68.7605 233.139 67.7762 229.941 65.8076C226.742 63.839 224.227 61.1051 222.394 57.6096C220.561 54.1141 219.648 50.2465 219.648 46.0066C219.763 43.405 220.154 41.1407 220.823 39.2104C221.492 37.28 222.251 35.7149 223.101 34.5184C223.951 33.3219 224.77 32.3654 225.564 31.6489C224.735 33.2524 224.038 34.748 223.484 36.1427C222.927 37.5374 222.516 39.0121 222.255 40.5668C221.99 42.1216 221.857 43.8606 221.857 45.7805C221.896 49.7769 222.711 53.4011 224.307 56.6636C225.902 59.9226 228.132 62.486 231.003 64.3502C233.871 66.2145 237.156 67.1501 240.856 67.1501L240.853 67.1536ZM242.295 25.0684C246.372 25.2005 249.95 26.2822 253.026 28.3204C256.103 30.3551 258.476 33.0959 260.148 36.5462C261.817 39.993 262.653 43.8084 262.653 47.9926C262.559 51.0255 262.078 53.6307 261.211 55.808C260.343 57.9853 259.416 59.6269 258.437 60.7399C257.455 61.8529 256.521 62.7016 255.636 63.2825C258.277 59.9678 259.827 55.8497 260.28 50.9317C260.357 49.8013 260.395 48.9526 260.395 48.3891C260.395 45.4327 259.939 42.6572 259.023 40.066C258.106 37.4748 256.828 35.2036 255.187 33.2558C253.546 31.3046 251.591 29.7499 249.326 28.5917C247.062 27.4335 244.703 26.8144 242.246 26.7413C238.717 26.7413 235.829 27.3917 233.581 28.6925C231.334 29.9934 229.651 31.6211 228.526 33.5828C227.404 35.541 226.659 37.4922 226.289 39.433C225.92 41.3738 225.739 43.2381 225.739 45.0293C225.965 54.2046 229.711 60.9417 236.978 65.2372C234.787 64.7085 232.85 63.7903 231.16 62.4825C229.47 61.1712 228.063 59.5887 226.941 57.7348C225.819 55.8775 224.958 53.8533 224.362 51.6586C223.767 49.4639 223.471 47.1961 223.471 44.8623C223.547 41.8294 224.136 38.8313 225.24 35.8749C226.345 32.9185 228.3 30.3759 231.101 28.2578C233.902 26.1396 237.637 25.0788 242.299 25.0788L242.295 25.0684Z" fill="#4A80A2"/>
<path d="M305.86 65.234C306.236 65.7035 306.964 65.9818 308.041 66.0687C309.118 66.1522 309.682 66.2044 309.741 66.2252C309.95 66.2809 310.25 66.3678 310.647 66.4791C311.044 66.5939 311.344 66.66 311.553 66.6774C311.591 66.6774 311.752 66.747 312.034 66.8896C312.316 67.0322 312.525 67.1017 312.657 67.1017L312.288 68.3747C312.173 68.3747 311.985 68.3121 311.724 68.1904C311.459 68.0687 311.243 68.006 311.072 68.006C310.863 67.9887 310.375 67.9399 309.598 67.8634C308.825 67.7869 308.316 67.7417 308.069 67.7209C307.672 67.7209 307.351 67.7243 307.107 67.7347C306.86 67.7452 306.598 67.7591 306.313 67.7765C305.633 67.7765 305.153 67.5887 304.87 67.213L277.576 32.644V53.4744C277.576 54.9457 277.67 56.5456 277.858 58.2777C277.896 58.7473 277.973 59.4081 278.084 60.2568C278.199 61.1054 278.273 61.7454 278.311 62.1802C278.388 62.7471 278.433 63.1541 278.454 63.4115C278.471 63.6654 278.548 64.1245 278.68 64.7818C278.757 65.3105 278.851 65.7348 278.962 66.0548C279.245 66.1696 279.576 66.2252 279.952 66.2252C280.178 66.2426 280.391 66.26 280.589 66.267C280.788 66.2774 281.018 66.3017 281.283 66.3365C281.812 66.3922 282.255 66.4687 282.614 66.5626L282.558 68.0026C282.199 67.8878 281.83 67.8321 281.454 67.8321C280.736 67.7556 280.189 67.7174 279.813 67.7174C279.548 67.6791 278.785 67.6617 277.52 67.6617L276.36 58.4204L274.945 67.5504C274.736 67.6061 274.562 67.6478 274.423 67.6791C274.28 67.7069 274.067 67.7591 273.785 67.8356C273.541 67.853 273.276 67.9052 272.991 67.9921C272.708 68.0756 272.433 68.1486 272.168 68.2043C272.036 68.2599 271.858 68.333 271.632 68.4165C271.405 68.5 271.224 68.566 271.095 68.6147C270.963 68.6599 270.82 68.7121 270.67 68.7712C270.555 68.8095 270.458 68.8373 270.374 68.8547C270.29 68.8721 270.172 68.8999 270.019 68.9382L269.963 67.4982C270.078 67.4809 270.207 67.4496 270.36 67.4148C270.51 67.3765 270.635 67.3487 270.729 67.3313C271.012 67.1991 271.311 67.0774 271.621 66.9626C271.931 66.8478 272.172 66.7539 272.343 66.6809C272.531 66.6044 272.705 66.5383 272.865 66.4826C273.025 66.427 273.238 66.3609 273.503 66.2844C273.541 66.0966 273.572 65.9539 273.6 65.86C273.628 65.7661 273.67 65.6166 273.729 65.4079C273.938 64.5036 274.099 63.6549 274.21 62.8654C274.287 62.281 274.346 61.8428 274.395 61.5507C274.44 61.2585 274.513 60.7924 274.607 60.1525C274.851 58.8343 275.088 57.5091 275.315 56.1804C275.541 54.8518 275.656 53.6518 275.656 52.5771V30.0493C275.109 29.0128 274.297 28.3172 273.221 27.959C272.844 27.8477 272.248 27.7503 271.437 27.6772C271.228 27.639 270.973 27.6216 270.674 27.6216L270.729 26.1816C270.994 26.1816 271.2 26.1851 271.353 26.1956C271.503 26.206 271.663 26.2199 271.834 26.2373C272.248 26.2756 272.583 26.3138 272.837 26.3521C273.092 26.3903 273.37 26.4286 273.673 26.4668C274.409 26.5433 275.308 26.8355 276.363 27.3433L305.867 65.2479L305.86 65.234ZM284.938 33.1831C285.053 33.3327 285.206 33.5379 285.405 33.7918C285.603 34.0457 285.833 34.3413 286.098 34.6822L286.948 35.67L304.926 58.1699L305.153 39.882C305.153 39.2211 304.926 37.8855 304.473 35.8682C304.02 33.8509 303.783 32.7205 303.766 32.477C303.689 31.9866 303.539 31.138 303.313 29.9345C303.257 29.7259 303.215 29.5763 303.184 29.4824C303.156 29.3885 303.121 29.2459 303.086 29.0581C302.877 28.9815 302.703 28.9224 302.564 28.8737C302.421 28.8285 302.208 28.7555 301.926 28.6615C301.623 28.5294 301.341 28.4181 301.076 28.3207C300.811 28.2268 300.547 28.1224 300.282 28.0111C300.188 27.9937 300.066 27.9659 299.912 27.9277C299.763 27.8894 299.637 27.8616 299.543 27.8442L299.599 26.4042C299.749 26.4425 299.867 26.4703 299.954 26.4877C300.038 26.5051 300.128 26.5364 300.223 26.5712C300.752 26.759 301.261 26.9572 301.752 27.1659C302.149 27.2598 302.473 27.3364 302.728 27.392C302.982 27.4477 303.194 27.486 303.365 27.5033C303.574 27.559 303.752 27.6007 303.902 27.632C304.052 27.6599 304.261 27.712 304.525 27.7885L305.912 36.9464L307.072 27.6772C308.354 27.6772 309.128 27.6598 309.393 27.6216C309.79 27.6216 310.326 27.5833 311.006 27.5068C311.403 27.5068 311.769 27.4511 312.11 27.3364L312.166 28.7763C311.807 28.8702 311.365 28.9467 310.835 29.0024C310.741 29.0198 310.609 29.0372 310.438 29.0441C310.267 29.0546 310.093 29.0615 309.915 29.072C309.734 29.0824 309.598 29.0963 309.504 29.1137C309.128 29.1137 308.797 29.1694 308.515 29.2841C308.4 29.6041 308.306 30.0284 308.233 30.5571C307.968 31.8962 307.818 32.724 307.78 33.044C307.703 33.9691 307.633 34.7587 307.567 35.4195C307.501 36.0804 307.449 36.6264 307.41 37.0577C307.222 38.7933 307.128 40.3932 307.128 41.861L306.846 63.5123L283.401 33.6944C282.495 32.5466 281.666 31.3675 280.91 30.1606C280.569 29.6528 280.293 29.2389 280.074 28.9154C279.858 28.5955 279.711 28.2929 279.635 28.0111C279.485 27.5972 279.37 27.1173 279.293 26.5712C279.502 26.5538 279.694 26.5399 279.875 26.5295C280.053 26.519 280.286 26.5155 280.569 26.5155C281.513 26.439 282.23 26.4042 282.722 26.4042C282.91 26.366 283.119 26.3382 283.345 26.3208C283.572 26.3034 283.77 26.2895 283.941 26.279C284.112 26.2686 284.3 26.2547 284.509 26.2373H285.331L285.276 27.3955C284.993 27.5068 284.739 27.5659 284.513 27.5659C284.324 27.6042 284.157 27.6425 284.018 27.6807C283.875 27.719 283.694 27.7572 283.467 27.7955C283.07 27.9068 282.812 28.0111 282.69 28.1051C282.568 28.199 282.506 28.425 282.506 28.7833C282.506 28.9711 282.575 29.2215 282.718 29.5311C282.861 29.8406 283.025 30.1571 283.213 30.4771C283.401 30.7971 283.554 31.0614 283.666 31.2701C283.875 31.684 284.297 32.3275 284.941 33.1935L284.938 33.1831Z" fill="#4A80A2"/>
<path d="M358.467 67.8359C358.484 67.5542 358.547 66.9142 358.651 65.9125C358.756 64.9143 358.808 64.1317 358.808 63.5648C355.24 67.0325 350.655 68.7646 345.049 68.7646C341.443 68.6498 338.126 67.6794 335.098 65.8534C332.067 64.0274 329.635 61.5335 327.792 58.3789C325.953 55.2242 324.967 51.7218 324.834 47.8785C324.834 44.9394 325.193 42.3343 325.911 40.0631C326.629 37.7919 327.44 35.9972 328.346 34.679C329.252 33.3608 330.113 32.3139 330.924 31.5417C328.378 35.6494 327.102 40.1918 327.102 45.1655C327.102 46.1081 327.158 47.0506 327.273 47.9932C327.5 50.5183 328.071 52.9357 328.987 55.2416C329.904 57.5511 331.134 59.6102 332.68 61.4188C334.227 63.2274 336.06 64.6465 338.175 65.6725C340.29 66.6986 342.6 67.2133 345.112 67.2133C348.453 67.2133 351.146 66.6325 353.195 65.4743C355.244 64.316 357.118 62.6326 358.815 60.4275C358.832 59.7493 358.846 59.1267 358.857 58.5632C358.867 57.9998 358.871 57.2728 358.871 56.3859V53.3635C358.7 53.3635 357.327 53.1513 354.752 52.7269C352.174 52.3026 350.613 52.0174 350.066 51.8644L350.463 50.1392C350.767 50.1949 351.732 50.3479 353.366 50.5914C355 50.8349 356.47 51.0331 357.784 51.1861C359.097 51.3357 360.111 51.4122 360.829 51.4122C360.846 52.24 360.867 53.1513 360.884 54.1391C360.902 55.1269 360.912 55.8955 360.912 56.4416C360.912 57.1024 360.888 57.7598 360.843 58.4207C360.794 59.0815 360.773 59.6554 360.773 60.1458C360.773 60.7301 360.77 61.1336 360.759 61.3596C360.749 61.5857 360.735 61.8153 360.717 62.0518C360.7 62.2883 360.679 62.5457 360.661 62.8274C360.644 63.1091 360.623 63.4117 360.606 63.7317C360.606 64.1839 360.588 64.9386 360.55 65.9925C360.512 67.0464 360.494 67.6585 360.494 67.8289H358.484L358.467 67.8359ZM359.853 37.4511L358.467 36.8285C358.561 36.3207 358.717 35.7224 358.933 35.0337C359.149 34.3451 359.261 33.8999 359.261 33.6912C358.77 32.8043 358.104 31.966 357.264 31.1765C356.425 30.3835 355.47 29.6635 354.404 29.0131C353.338 28.3627 352.212 27.8445 351.035 27.4584C349.854 27.0724 348.701 26.8497 347.565 26.7941C347.338 26.7767 347.129 26.7628 346.941 26.7524C346.753 26.7419 346.506 26.7384 346.206 26.7384C343.394 26.7384 340.99 27.2741 339.001 28.3488C337.008 29.4235 335.422 30.8774 334.245 32.7173C333.064 34.5538 332.224 36.5954 331.726 38.8353C331.224 41.0787 330.977 43.3778 330.977 45.7324C331.147 50.2366 332.161 54.0938 334.022 57.3076C335.882 60.5214 338.52 63.1648 341.934 65.2343C339.631 64.6882 337.635 63.7282 335.945 62.3509C334.255 60.9771 332.886 59.3702 331.841 57.5302C330.796 55.6903 330.019 53.746 329.52 51.6939C329.019 49.6418 328.771 47.6524 328.771 45.729C328.771 44.0142 328.942 42.0909 329.28 39.9622C329.621 37.8336 330.388 35.6251 331.586 33.333C332.785 31.0444 334.701 29.1035 337.335 27.5106C339.969 25.9176 343.38 25.1211 347.572 25.1211C349.666 25.1211 351.652 25.302 353.533 25.6567C355.411 26.015 357.822 26.6828 360.766 27.6636C360.766 27.5697 360.829 27.4514 360.951 27.3088C361.073 27.1662 361.135 27.0515 361.135 26.9541C361.135 26.8984 361.181 26.7836 361.278 26.6132C361.372 26.4428 361.421 26.2933 361.421 26.1611C361.477 26.0846 361.54 25.9906 361.606 25.8793C361.672 25.768 361.707 25.6428 361.707 25.5106L363.093 26.1611C363.076 26.2167 363.041 26.321 362.992 26.4706C362.947 26.6202 362.923 26.7072 362.923 26.7245C362.923 26.8567 362.857 27.0445 362.724 27.288C362.592 27.5349 362.526 27.6949 362.526 27.768C362.111 28.8984 361.836 29.5766 361.703 29.8027C360.439 29.1801 359.32 28.6966 358.348 28.3453C357.376 27.9975 356.369 27.7297 355.331 27.5384C356.954 28.7071 358.947 30.5991 361.306 33.2182C360.682 34.5364 360.202 35.9415 359.864 37.4302L359.853 37.4511ZM365.233 67.6655H363.194C362.891 65.669 362.647 63.4743 362.459 61.0814C362.442 60.6466 362.428 59.9406 362.418 58.9597C362.407 57.9789 362.404 57.1824 362.404 56.5703V54.633C362.404 54.3512 362.421 53.833 362.459 53.0782C362.498 52.3235 362.515 51.7878 362.515 51.4679C363.703 51.3357 364.703 51.1896 365.515 51.0296C366.327 50.8697 367.118 50.6296 367.895 50.3097V51.6383C367.686 51.7322 367.393 51.8609 367.017 52.0209C366.64 52.1809 366.243 52.3652 365.828 52.5704C365.734 52.5704 365.612 52.6261 365.459 52.7409C365.306 52.8556 365.177 52.9113 365.062 52.9113L364.609 53.1374C364.477 53.4191 364.372 53.9373 364.299 54.6921C364.261 56.1251 364.243 57.7737 364.243 59.638C364.431 62.7648 364.762 65.443 365.233 67.6655Z" fill="#4A80A2"/>
<path d="M406.258 67.4388C406.541 67.3066 407.203 66.9971 408.241 66.5067C408.373 66.451 408.516 66.3884 408.666 66.3223C408.816 66.2563 408.931 66.2041 409.004 66.1658C409.08 66.1658 409.154 66.1276 409.23 66.051C409.269 65.6545 409.286 65.0911 409.286 64.3537C409.363 63.0912 409.401 61.1504 409.401 58.5313V52.5107C409.401 49.8917 409.324 46.4136 409.175 42.0798C409.119 39.6695 408.997 37.3705 408.805 35.1827C408.635 31.8472 408.485 29.6908 408.352 28.7099C408.258 28.0143 408.182 27.5517 408.126 27.3257C407.391 27.0996 406.872 26.9569 406.568 26.9013C406.38 26.863 406.22 26.8422 406.088 26.8317C405.955 26.8213 405.823 26.8074 405.69 26.79C405.596 26.7726 405.509 26.7587 405.436 26.7483C405.359 26.7378 405.248 26.7344 405.098 26.7344V25.4057C405.987 25.4822 406.861 25.517 407.732 25.517H410.45C410.77 28.7586 411.014 33.1306 411.185 38.633C411.356 44.1354 411.439 48.8935 411.439 52.9072V67.4353C409.495 67.6614 407.767 68.1031 406.258 68.764V67.4353V67.4388ZM418.63 25.1275V26.5674C418.101 26.717 417.111 26.8491 415.659 26.9639C415.526 28.8665 415.443 30.7377 415.404 32.5741C415.366 34.4106 415.341 36.5079 415.335 38.8626C415.324 41.2172 415.321 43.725 415.321 46.3823L417.867 43.8085L425.794 55.1159C425.888 55.1715 425.979 55.2584 426.062 55.3697C426.146 55.4845 426.254 55.6236 426.386 55.7941C426.463 55.888 426.571 56.048 426.71 56.274C426.853 56.5001 426.978 56.6879 427.093 56.8375C427.264 57.0253 427.438 57.2444 427.616 57.4879C427.794 57.7314 428.027 58.0166 428.309 58.3366C429.083 59.4496 430.01 60.6634 431.083 61.9817C432.253 63.4146 433.156 64.4685 433.786 65.1467C434.417 65.825 435.023 66.3954 435.598 66.8579C436.173 67.3205 436.832 67.731 437.567 68.0892C436.887 68.0336 436.048 67.7797 435.048 67.3275C434.048 66.8754 432.637 65.7867 430.814 64.0616C428.992 62.3364 426.797 59.7417 424.233 56.274L417.467 46.9457L415.314 48.9248C415.314 49.6204 415.31 50.1978 415.3 50.6499C415.289 51.1021 415.275 51.6029 415.258 52.149V58.1696C415.22 59.1887 415.202 60.6947 415.202 62.6912C415.202 64.0094 415.22 65.0181 415.258 65.7172C416.92 65.9606 418.174 66.2076 419.024 66.451L418.968 67.891C416.93 67.5501 415.512 67.3831 414.721 67.3831C414.119 67.3831 413.655 67.4006 413.335 67.4388C413.335 66.3641 413.331 65.4945 413.321 64.8233C413.31 64.1555 413.296 63.4251 413.279 62.6321V58.3366C413.261 57.3557 413.244 56.4514 413.237 55.6236C413.227 54.7959 413.202 53.7385 413.167 52.4586V40.3477C413.167 39.7356 413.171 38.96 413.181 38.0174C413.192 37.0748 413.206 36.3688 413.223 35.8992C413.223 32.8107 413.261 30.5116 413.338 29.0021C413.394 27.6074 413.47 26.4492 413.565 25.524C415.735 25.4475 417.425 25.3153 418.634 25.1275H418.63ZM419.028 42.4241C419.763 41.5581 420.376 40.8242 420.867 40.219C421.529 39.5025 422.421 38.4661 423.543 37.1096C424.665 35.7531 425.696 34.2923 426.63 32.7271C427.564 31.162 428.445 29.2595 429.278 27.0161C429.128 26.9778 428.989 26.9535 428.867 26.9465C428.745 26.9361 428.616 26.9222 428.484 26.9048C428.236 26.9048 427.849 26.8665 427.323 26.7935C427.135 26.7552 426.968 26.717 426.829 26.6787C426.686 26.6405 426.484 26.6022 426.219 26.5639C426.107 26.5639 425.992 26.5466 425.881 26.5083V25.0684C427.881 25.371 429.846 25.5205 431.769 25.5205C430.769 28.3099 429.55 30.9011 428.118 33.2941L435.198 25.5205C436.574 25.4648 437.776 25.3118 438.793 25.0684V26.4526C438.096 26.7552 437.264 26.9048 436.302 26.9048L434.86 28.4873L421.411 42.4207L429.989 54.3472C430.724 55.3836 431.626 56.6358 432.692 58.107C433.759 59.5783 434.985 61.0356 436.372 62.4894C437.758 63.9398 439.232 65.1363 440.79 66.0789C442.347 67.0214 443.946 67.491 445.587 67.491V68.7048C444.096 68.7048 442.73 68.4962 441.497 68.0823C440.26 67.6684 439.124 67.098 438.086 66.371C437.048 65.6476 436.023 64.7641 435.013 63.7276C434.002 62.6912 432.94 61.4947 431.828 60.1382C431.431 59.5748 430.978 58.9626 430.47 58.3018C429.961 57.6409 429.564 57.1331 429.281 56.7749C429.055 56.4932 428.825 56.1871 428.588 55.8566C428.351 55.5262 428.16 55.2758 428.006 55.1089L419.031 42.4172L419.028 42.4241Z" fill="#4A80A2"/>
<path d="M470.049 67.1536C472.296 67.098 474.349 66.7015 476.206 65.9676C478.066 65.2337 479.704 64.1346 481.118 62.6738C482.533 61.213 483.634 59.387 484.418 57.1888C485.202 54.9941 485.592 52.4655 485.592 49.5995C485.592 48.7509 485.574 48.1004 485.536 47.6483C485.442 45.7249 485.111 43.638 484.547 41.3877C483.982 39.1373 482.839 36.7757 481.122 34.3062C479.404 31.8368 476.951 29.8577 473.76 28.3691C476.61 28.8595 479.097 30.056 481.219 31.9585C483.341 33.861 484.958 36.1844 486.062 38.9252C487.167 41.6659 487.766 44.6119 487.86 47.7596C487.86 51.3038 487.39 54.4028 486.445 57.0601C485.501 59.7174 484.184 61.9086 482.494 63.6303C480.805 65.3554 478.878 66.6319 476.718 67.4597C474.558 68.2875 472.275 68.7223 469.882 68.7605C465.917 68.7605 462.335 67.7762 459.137 65.8076C455.938 63.839 453.423 61.1051 451.59 57.6096C449.761 54.1141 448.845 50.2465 448.845 46.0066C448.956 43.405 449.35 41.1407 450.019 39.2104C450.688 37.28 451.447 35.7149 452.297 34.5184C453.148 33.3219 453.966 32.3654 454.761 31.6489C453.932 33.2524 453.235 34.748 452.681 36.1427C452.123 37.5374 451.712 39.0121 451.447 40.5668C451.183 42.1216 451.05 43.8606 451.05 45.7805C451.089 49.7769 451.904 53.4011 453.5 56.6636C455.095 59.9226 457.325 62.486 460.196 64.3502C463.063 66.2145 466.349 67.1501 470.049 67.1501V67.1536ZM471.492 25.0684C475.568 25.2005 479.146 26.2822 482.223 28.3204C485.299 30.3551 487.672 33.0959 489.344 36.5462C491.013 39.993 491.849 43.8084 491.849 47.9926C491.755 51.0255 491.274 53.6307 490.407 55.808C489.539 57.9853 488.613 59.6269 487.634 60.7399C486.651 61.8529 485.717 62.7016 484.832 63.2825C487.473 59.9678 489.024 55.8497 489.477 50.9317C489.553 49.8013 489.592 48.9526 489.592 48.3891C489.592 45.4327 489.135 42.6572 488.219 40.066C487.303 37.4748 486.024 35.2036 484.383 33.2558C482.742 31.3046 480.787 29.7499 478.523 28.5917C476.258 27.4335 473.899 26.8144 471.443 26.7413C467.913 26.7413 465.025 27.3917 462.778 28.6925C460.53 29.9934 458.848 31.6211 457.722 33.5828C456.6 35.541 455.855 37.4922 455.485 39.433C455.116 41.3738 454.935 43.2381 454.935 45.0293C455.161 54.2046 458.907 60.9417 466.175 65.2372C463.983 64.7085 462.046 63.7903 460.356 62.4825C458.666 61.1712 457.259 59.5887 456.137 57.7348C455.015 55.8775 454.155 53.8533 453.562 51.6586C452.966 49.4639 452.67 47.1961 452.67 44.8623C452.747 41.8294 453.336 38.8313 454.44 35.8749C455.545 32.9185 457.499 30.3759 460.301 28.2578C463.102 26.1396 466.837 25.0788 471.499 25.0788L471.492 25.0684Z" fill="#4A80A2"/>
<path d="M501.42 27.4444C500.42 27.0305 499.72 26.7209 499.326 26.5122V25.1836C500.194 25.5418 501.055 25.8235 501.905 26.0322C502.755 26.2409 503.699 26.4009 504.737 26.5122C504.776 27.1348 504.793 28.0774 504.793 29.3399V40.9847C504.793 45.715 504.702 50.5808 504.525 55.5824C504.344 60.5839 504.103 64.5385 503.804 67.4393H500.971C500.044 67.4393 499.11 67.4949 498.17 67.6097V66.2811C498.285 66.2637 498.382 66.2498 498.466 66.2393C498.549 66.2289 498.65 66.2254 498.762 66.2254C498.988 66.1872 499.17 66.1628 499.299 66.1559C499.431 66.1454 499.563 66.1315 499.696 66.1141C500.037 66.0202 500.257 65.968 500.361 65.9576C500.466 65.9472 500.602 65.9263 500.772 65.8881C500.943 65.8498 501.142 65.8115 501.368 65.7767C501.612 63.9681 501.835 61.6065 502.034 58.6953C502.232 55.7841 502.375 52.8486 502.459 49.8922C502.542 46.9358 502.588 44.0976 502.588 41.3847C502.605 40.7238 502.615 39.7222 502.615 38.3761C502.615 37.0301 502.626 36.0249 502.643 35.3675C502.643 32.7868 502.626 30.846 502.588 29.5452C502.588 29.1695 502.584 28.8635 502.574 28.6269C502.563 28.3904 502.549 28.1331 502.532 27.8513C502.476 27.8339 502.424 27.82 502.375 27.8096C502.326 27.7992 502.284 27.7957 502.246 27.7957C502.114 27.7191 501.978 27.6496 501.835 27.5835C501.692 27.5174 501.556 27.4757 501.424 27.4548L501.42 27.4444ZM510.225 27.8965H508.95V55.7945C508.967 56.3232 508.981 56.8136 508.991 57.2658C509.002 57.7179 509.005 58.3127 509.005 59.0466V63.5125C509.061 63.9264 509.089 64.5976 509.089 65.5193C510.012 65.5576 511.364 65.575 513.137 65.575C515.402 65.5576 517.364 65.4011 519.026 65.109C520.688 64.8168 521.924 64.5003 522.736 64.1629C523.548 63.822 524.189 63.5021 524.663 63.2029C524.663 62.8447 524.659 62.563 524.649 62.3543C524.639 62.1456 524.625 61.9125 524.607 61.6482C524.625 61.3073 524.639 61.0047 524.649 60.73C524.659 60.4587 524.663 60.1144 524.663 59.697H525.879C525.879 61.8465 526.039 63.4012 526.36 64.3611C526.172 64.4551 526.029 64.542 525.935 64.615C525.349 64.7855 524.99 64.8794 524.858 64.8968C524.611 64.9733 524.245 65.0672 523.754 65.1785C523.262 65.2898 522.893 65.3872 522.649 65.4602C521.837 65.5924 521.235 65.7141 520.837 65.8289C520.384 65.9228 520.04 65.9993 519.803 66.055C519.566 66.1106 519.297 66.1698 518.994 66.2254H526.356C526.433 66.7332 526.527 67.1958 526.638 67.6097C526.677 67.7975 526.701 67.9679 526.708 68.1175C526.719 68.2671 526.733 68.427 526.75 68.5975C526.767 68.6357 526.781 68.6775 526.792 68.7262C526.802 68.7714 526.806 68.8236 526.806 68.8827H525.868C525.698 68.6566 525.548 68.2706 525.416 67.7245H524.792C524.545 67.7071 524.318 67.6897 524.112 67.6827C523.903 67.6723 523.639 67.6688 523.318 67.6688C522.618 67.6688 522.099 67.6514 521.761 67.6132C521.475 67.6132 521.06 67.5958 520.513 67.5575C519.966 67.5193 519.548 67.5019 519.266 67.5019C518.925 67.4636 518.322 67.4462 517.451 67.4462H506.734C506.695 66.6358 506.678 65.4393 506.678 63.8568C506.678 63.0464 506.674 62.3925 506.664 61.8917C506.654 61.3908 506.64 60.8517 506.622 60.2674C506.64 59.6657 506.654 59.1127 506.664 58.6153C506.674 58.1179 506.678 57.471 506.678 56.678C506.678 56.0171 506.674 55.4919 506.664 55.0954C506.654 54.6989 506.64 54.2676 506.622 53.7946L506.737 26.5192C508.291 26.5192 509.444 26.4809 510.204 26.4079C510.49 26.3696 510.772 26.3418 511.057 26.3244C511.343 26.307 511.629 26.2827 511.925 26.2548C512.218 26.227 512.507 26.2027 512.793 26.1853C513.305 26.074 513.845 26.0149 514.413 26.0149V27.2879C514.13 27.3818 513.817 27.4583 513.479 27.5139C513.12 27.6078 512.486 27.7018 511.58 27.7957C511.239 27.7957 510.786 27.8339 510.221 27.9069L510.225 27.8965Z" fill="#4A80A2"/>
<path d="M368.473 45.2419C372.758 36.1571 381.619 32.2024 389.879 39.2839C392.566 41.9064 396.646 43.2663 400.022 41.0368C397.346 43.6907 392.837 43.1238 390.033 40.943C381.605 33.8546 374.375 37.0092 368.473 45.2419Z" fill="#4A80A2"/>
<path d="M406.903 37.3184C402.617 46.4032 393.757 50.3578 385.496 43.2764C382.81 40.6539 378.73 39.2939 375.354 41.5234C378.03 38.8696 382.538 39.4365 385.343 41.6173C393.771 48.7057 401.001 45.5511 406.903 37.3184Z" fill="#4A80A2"/>
<path d="M190.403 92.3181C187.243 92.3181 184.661 92.8537 182.654 93.9285C182.738 94.5754 182.776 95.6432 182.776 97.1284H181.849C181.849 96.5093 181.821 95.838 181.766 95.1145C181.71 94.3911 181.609 93.6781 181.456 92.9789C182.226 92.8259 182.828 92.6903 183.267 92.5651C183.403 92.5372 183.658 92.4816 184.03 92.3981C184.403 92.3146 184.668 92.259 184.835 92.2311C185.055 92.1755 185.215 92.1338 185.319 92.099C185.424 92.0642 185.584 92.0225 185.804 91.9668H181.456C181.456 91.4207 181.386 90.7842 181.25 90.0469H182.219C182.219 90.3216 182.26 90.6034 182.341 90.8886C183.867 90.9999 185.288 91.0521 186.605 91.0521L192.086 91.1321C192.361 93.6294 192.518 95.678 192.559 97.2814C192.587 97.8309 192.612 98.5857 192.633 99.5456C192.654 100.506 192.671 101.396 192.685 102.22C192.713 102.975 192.741 103.789 192.769 104.658C192.796 105.528 192.81 106.231 192.81 106.766V120.672C192.068 120.769 191.371 120.894 190.72 121.051C190.068 121.207 189.5 121.402 189.02 121.639V120.672C189.267 120.536 189.459 120.435 189.598 120.373C189.734 120.31 189.884 120.244 190.04 120.178C190.197 120.108 190.333 120.049 190.441 119.994C190.511 119.98 190.594 119.945 190.699 119.889C190.803 119.834 190.901 119.785 190.999 119.747C191.04 119.733 191.075 119.722 191.103 119.715C191.131 119.708 191.166 119.705 191.208 119.705C191.222 119.5 191.232 119.315 191.239 119.148C191.246 118.985 191.249 118.776 191.249 118.529C191.277 117.541 191.291 116.108 191.291 114.227V109.841C191.291 109.03 191.291 108.144 191.281 107.177C191.274 106.21 191.236 104.728 191.166 102.732C191.096 100.735 190.999 98.7978 190.866 96.9162C190.734 95.0345 190.58 93.5007 190.403 92.3042V92.3181ZM194.448 91.1425L199.977 91.0625C200.113 91.0486 200.684 91.0277 201.691 90.9999C202.695 90.9721 203.534 90.9234 204.21 90.8573C204.266 90.5025 204.322 90.2347 204.374 90.0538H205.304C205.169 90.666 205.099 91.306 205.099 91.9738H200.709C200.928 92.0155 201.113 92.0572 201.266 92.1059C201.416 92.1546 201.569 92.1964 201.719 92.2381C201.855 92.252 202.109 92.3042 202.482 92.3946C202.852 92.485 203.12 92.5442 203.287 92.5685C203.726 92.6937 204.318 92.8294 205.061 92.9824C204.841 94.4537 204.73 95.838 204.73 97.1318H203.761C203.761 95.4937 203.817 94.4258 203.925 93.9285C201.946 92.8816 199.301 92.3598 195.991 92.3598C195.828 93.6224 195.723 95.3232 195.681 97.4657V101.973C195.681 102.853 195.678 103.566 195.671 104.116C195.664 104.665 195.653 105.267 195.639 105.928V113.976C195.639 114.717 195.636 115.315 195.629 115.768C195.622 116.22 195.612 116.721 195.598 117.27C195.626 117.75 195.639 118.47 195.639 119.43C196.573 119.527 197.5 119.705 198.423 119.966L198.381 121.016C196.918 120.769 195.862 120.647 195.214 120.647C194.786 120.647 194.462 120.661 194.242 120.689C194.228 120.112 194.218 119.538 194.211 118.96C194.204 118.383 194.2 117.809 194.2 117.232C194.173 116.874 194.159 116.355 194.159 115.667C194.159 114.978 194.145 114.481 194.117 114.164C194.117 113.19 194.113 112.404 194.106 111.809C194.099 111.215 194.089 110.564 194.075 109.865V101.142C194.075 100.704 194.075 100.13 194.086 99.4239C194.092 98.7179 194.103 98.1927 194.117 97.8518C194.117 95.9736 194.159 94.5545 194.242 93.5946C194.298 92.4851 194.368 91.6677 194.451 91.146L194.448 91.1425Z" fill="#4A80A2"/>
<path d="M208.764 91.9026V90.8522C208.848 90.8522 210.123 90.9496 212.597 91.1409C212.624 91.4017 212.645 91.6695 212.659 91.9443C212.673 92.2191 212.694 92.5008 212.722 92.786C212.75 93.0747 212.771 93.3564 212.785 93.6277C212.813 94.299 212.84 95.0329 212.868 95.8294C212.896 96.6258 212.91 97.2554 212.91 97.7215C212.938 98.7371 212.952 100.306 212.952 102.431V105.926C212.938 106.351 212.931 106.994 212.931 107.85C212.931 108.705 212.924 109.349 212.91 109.773C212.91 110.239 212.896 110.952 212.868 111.912C212.84 112.872 212.827 113.585 212.827 114.051V117.178C212.827 117.961 212.823 118.59 212.816 119.07C212.809 119.55 212.799 120.086 212.785 120.674C212.551 120.646 212.206 120.632 211.753 120.632C211.053 120.632 209.973 120.754 208.517 121.001L208.475 119.95C209.217 119.745 210.172 119.568 211.339 119.415V113.923C211.311 112.976 211.297 111.516 211.297 109.54V101.847C211.297 99.8188 211.283 98.2954 211.255 97.2797C211.255 96.7441 211.238 96.1459 211.203 95.4815C211.168 94.8172 211.137 94.2712 211.109 93.8468C211.081 93.4225 211.057 93.0538 211.036 92.7477C211.015 92.4382 211.004 92.2573 211.004 92.2017C210.151 92.0904 209.405 91.9895 208.757 91.8921L208.764 91.9026ZM219.554 109.14C218.718 109.112 217.499 108.998 215.893 108.789C215.809 109.627 215.771 110.455 215.771 111.279C215.785 111.759 215.795 112.204 215.802 112.615C215.809 113.025 215.812 113.554 215.812 114.197V118.434C215.84 118.625 215.861 118.788 215.875 118.917C215.889 119.049 215.9 119.171 215.907 119.286C215.913 119.404 215.924 119.529 215.938 119.665C215.994 119.721 216.046 119.748 216.102 119.748C216.251 119.804 216.44 119.888 216.659 119.995C216.906 120.117 217.415 120.347 218.185 120.674V121.641C217.046 121.161 215.746 120.837 214.29 120.674C214.262 120.194 214.248 119.494 214.248 118.576V110.1C214.248 109.331 214.248 108.486 214.259 107.561C214.265 106.636 214.297 105.064 214.353 102.852C214.408 100.636 214.488 98.351 214.6 95.9929C214.708 93.6347 214.792 91.9478 214.847 90.9322L216.105 90.8904C216.283 90.8626 216.523 90.8487 216.826 90.8487C218.638 90.6435 219.746 90.5322 220.157 90.5183C220.307 90.5044 220.446 90.4939 220.568 90.487C220.69 90.48 220.85 90.4766 221.042 90.4766C223.516 90.4766 225.582 90.9635 227.237 91.9374C228.892 92.9112 230.111 94.1668 230.885 95.7007C231.662 97.238 232.048 98.8066 232.048 100.41C232.021 102.33 231.407 104.093 230.209 105.697C229.01 107.3 227.383 108.208 225.331 108.413C226.512 107.961 227.676 107.144 228.822 105.965C229.968 104.786 230.55 102.96 230.564 100.494C230.564 97.0224 229.547 94.6816 227.509 93.4677C225.47 92.2539 223.244 91.6487 220.83 91.6487C220.129 91.6487 219.69 91.6626 219.513 91.6904C218.499 91.76 217.572 91.9721 216.736 92.3269C216.474 93.9442 216.269 96.3511 216.119 99.5475C215.969 102.744 215.893 105.405 215.893 107.53C217.251 107.846 218.819 108.045 220.603 108.128C220.711 108.278 220.91 108.563 221.188 108.98C221.471 109.398 221.725 109.773 221.958 110.1C222.136 110.333 222.492 110.858 223.028 111.672C223.561 112.49 224.035 113.213 224.446 113.843C225.011 114.597 225.537 115.276 226.024 115.877C226.512 116.482 227.049 117.088 227.634 117.696C228.219 118.305 228.836 118.896 229.481 119.467C230.129 120.037 230.885 120.635 231.752 121.268C230.627 120.966 229.592 120.524 228.651 119.943C227.711 119.359 226.791 118.604 225.889 117.668C224.99 116.736 224.063 115.613 223.105 114.295C222.15 112.977 220.965 111.258 219.551 109.133L219.554 109.14ZM226.683 114.569L222.004 107.738C223.087 107.45 224.063 106.963 224.934 106.278C225.805 105.592 226.488 104.74 226.979 103.728C227.474 102.713 227.739 101.624 227.78 100.459C227.78 98.431 227.195 96.8032 226.021 95.5824C224.847 94.3616 223.453 93.5338 221.836 93.0921C222.812 93.0921 223.756 93.2486 224.662 93.5651C225.571 93.8816 226.355 94.3338 227.014 94.9216C227.676 95.5128 228.212 96.2572 228.624 97.165C229.038 98.0693 229.251 99.071 229.265 100.167C229.265 101.457 229.038 102.629 228.582 103.683C228.125 104.74 227.495 105.638 226.69 106.379C225.882 107.119 224.962 107.704 223.927 108.128L229.003 115.286C229.512 116.013 230.188 116.802 231.024 117.651C231.864 118.503 232.846 119.241 233.975 119.874C235.104 120.503 236.306 120.827 237.588 120.841V121.644C236.034 121.644 234.536 121.247 233.094 120.451C231.651 119.654 230.394 118.726 229.32 117.665C228.247 116.604 227.369 115.571 226.683 114.569Z" fill="#4A80A2"/>
<path d="M259.744 109.944H247.215C246.445 112.125 245.95 113.933 245.731 115.373C245.511 116.813 245.4 118.177 245.4 119.467C245.908 119.564 246.947 119.686 248.511 119.836V120.886C246.685 120.75 245.208 120.681 244.079 120.681L245.212 113.398L242.511 120.597C241.177 120.886 240.086 121.234 239.236 121.648V120.597C239.62 120.514 240.39 120.26 241.543 119.836C241.626 119.672 241.686 119.54 241.727 119.446C241.769 119.349 241.835 119.227 241.933 119.077C242.055 118.789 242.351 118.131 242.818 117.102C242.996 116.65 243.194 116.177 243.417 115.683C243.637 115.189 243.801 114.806 243.912 114.531C244.048 114.243 244.428 113.359 245.044 111.878C245.128 111.686 245.191 111.53 245.239 111.415C245.288 111.3 245.341 111.172 245.393 111.036L252.295 91.1028C252.02 91.075 251.601 91.0611 251.037 91.0611C250.668 91.0611 250.386 91.0333 250.194 90.9776C249.919 90.9776 249.584 90.9637 249.184 90.9359C248.786 90.9081 248.56 90.8941 248.504 90.8941V89.8438H252.936C253.5 90.995 253.957 91.9967 254.305 92.8454C254.657 93.694 255.002 94.5949 255.347 95.5409C255.688 96.487 255.998 97.3113 256.274 98.0104L265.339 120.677C264.294 120.677 262.639 121.001 260.375 121.644V120.594C261.2 120.472 262.085 120.218 263.033 119.832C262.963 119.627 262.894 119.404 262.817 119.164C262.74 118.924 262.684 118.743 262.643 118.618C262.521 118.017 262.291 117.185 261.963 116.128C261.716 115.293 261.371 114.274 260.932 113.074C260.493 111.874 260.092 110.827 259.737 109.937L259.744 109.944ZM247.71 108.462H259.228L252.943 93.3845L247.71 108.462ZM256.281 89.8472C256.486 90.3968 256.995 91.7254 257.807 93.8366C258.89 96.8278 259.807 99.2451 260.549 101.099C260.768 101.69 261.085 102.49 261.496 103.506C261.908 104.521 262.319 105.541 262.723 106.56C263.127 107.582 263.441 108.386 263.66 108.977C263.73 109.14 264.096 110.076 264.761 111.784C265.427 113.491 265.987 114.942 266.44 116.135C266.838 116.984 267.318 118.097 267.883 119.467C268.186 119.523 268.398 119.578 268.52 119.63C268.851 119.686 269.088 119.714 269.242 119.714C269.573 119.77 269.827 119.797 270.005 119.797C270.074 119.797 270.13 119.797 270.168 119.808C270.21 119.815 270.252 119.825 270.294 119.839V120.889C270.252 120.876 270.193 120.865 270.12 120.858C270.043 120.851 269.966 120.844 269.883 120.837C269.799 120.83 269.74 120.82 269.698 120.806C269.451 120.778 269.249 120.754 269.092 120.733C268.932 120.712 268.757 120.695 268.566 120.681H266.792C266.433 119.804 266.134 119.029 265.886 118.357C265.639 117.686 265.42 117.123 265.228 116.67C265.036 116.149 264.806 115.575 264.538 114.942C264.27 114.312 264.015 113.7 263.775 113.112C263.535 112.525 263.315 111.982 263.117 111.488C262.918 110.994 262.653 110.351 262.322 109.554C261.772 108.184 261.378 107.193 261.138 106.58C260.897 105.972 260.657 105.363 260.416 104.761C260.176 104.16 259.782 103.172 259.232 101.798C257.981 98.6712 257.04 96.2157 256.41 94.4349C256.162 93.7497 255.964 93.1932 255.81 92.7689C255.661 92.3445 255.507 91.9237 255.357 91.5028C255.208 91.0854 255.005 90.5324 254.758 89.8472H256.284H256.281Z" fill="#4A80A2"/>
<path d="M285.314 121.647C285.202 121.33 284.722 120.057 283.872 117.821C282.537 114.242 281.638 111.898 281.171 110.785C280.952 110.221 280.638 109.453 280.234 108.472C279.83 107.491 279.422 106.507 279.018 105.519C278.614 104.531 278.3 103.755 278.081 103.195C277.778 102.413 277.457 101.582 277.112 100.695C276.767 99.8112 276.478 99.0495 276.238 98.413C275.997 97.7765 275.698 97.0391 275.342 96.2009C275.039 95.5296 274.767 94.921 274.527 94.3819C274.287 93.8393 274.085 93.3975 273.917 93.0567C273.806 93.0149 273.705 92.9732 273.607 92.935C273.51 92.8932 273.416 92.8723 273.318 92.8723C273.248 92.8584 273.008 92.8167 272.597 92.7506C272.336 92.7506 272.081 92.7089 271.834 92.6289H271.545V91.6202C271.681 91.6202 271.796 91.6237 271.886 91.6307C271.977 91.6376 272.074 91.648 272.186 91.6619C272.433 91.6898 272.646 91.7176 272.823 91.7454C273.001 91.7732 273.165 91.7872 273.318 91.7872C273.799 91.815 274.363 91.8289 275.008 91.8289C275.503 93.0497 276.025 94.3575 276.576 95.7592C276.893 96.5557 277.227 97.3696 277.586 98.2078C277.945 99.046 278.238 99.7347 278.471 100.274C278.705 100.816 279.029 101.592 279.44 102.608C279.907 103.679 280.398 104.882 280.913 106.218C281.429 107.553 281.934 108.854 282.429 110.117C283.899 113.765 284.84 116.151 285.251 117.275C285.868 118.864 286.404 120.325 286.857 121.657H285.31L285.314 121.647ZM288.673 118.273L294.669 100.973C295.603 98.4095 296.069 95.7696 296.069 93.0532C295.738 92.9558 294.711 92.8132 292.979 92.6219V91.6133C294.805 91.7489 296.254 91.8185 297.327 91.8185L296.237 98.8965L298.895 91.902C300.188 91.6133 301.257 91.2655 302.111 90.8516V91.902C301.686 92.0133 301.268 92.135 300.853 92.2706C300.442 92.4063 300.111 92.5245 299.864 92.6219C299.78 92.7854 299.717 92.9245 299.669 93.0324C299.62 93.1437 299.561 93.2584 299.494 93.3836C299.397 93.6028 299.264 93.8949 299.094 94.2567C298.923 94.6184 298.759 94.9592 298.609 95.2757C297.951 96.6878 297.55 97.533 297.414 97.8043C297.195 98.3539 296.958 98.9277 296.704 99.5329C296.449 100.138 296.24 100.67 296.076 101.136L289.112 121.647H288.554C288.376 121.167 288.237 120.816 288.143 120.596C287.979 120.186 287.819 119.786 287.669 119.403C287.519 119.021 287.352 118.614 287.174 118.19C286.997 117.793 286.83 117.424 286.68 117.09C286.53 116.753 286.335 116.332 286.101 115.824C285.798 114.976 285.537 114.287 285.317 113.769L276.395 91.822C277.206 91.8081 278.144 91.6689 279.206 91.4011C280.269 91.1333 280.98 90.9524 281.339 90.855V91.9054C280.527 91.9889 279.656 92.2289 278.722 92.6254C278.764 92.761 278.809 92.9384 278.854 93.1506C278.903 93.3628 278.969 93.5923 279.049 93.8393C279.199 94.4688 279.426 95.2583 279.729 96.2044C280.14 97.5087 280.478 98.4617 280.739 99.0634L288.673 118.277V118.273Z" fill="#4A80A2"/>
<path d="M306.703 120.681C307.142 120.503 307.65 120.277 308.229 120.002C308.365 119.947 308.476 119.902 308.56 119.87C308.643 119.835 308.731 119.797 308.828 119.756C308.912 119.756 308.978 119.728 309.034 119.672C309.062 119.369 309.079 119.14 309.086 118.983C309.093 118.827 309.103 118.643 309.117 118.437V109.819C309.117 109.078 309.096 107.659 309.055 105.561C309.013 103.464 308.967 101.847 308.922 100.706C308.873 99.5685 308.79 98.1564 308.675 96.4695C308.56 94.7826 308.41 93.3496 308.232 92.1706C308.11 92.1149 307.689 92.0001 306.975 91.8193C306.863 91.7914 306.755 91.774 306.644 91.7671C306.532 91.7601 306.417 91.7497 306.292 91.7358C306.236 91.7219 306.177 91.7114 306.117 91.7045C306.055 91.6975 305.971 91.6941 305.86 91.6941V90.7271C306.009 90.7271 306.354 90.748 306.891 90.7897C307.427 90.8315 307.762 90.8523 307.901 90.8523H309.96C309.988 90.9497 310.065 91.9236 310.197 93.774C310.326 95.6243 310.448 97.9895 310.556 100.859C310.668 103.732 310.72 106.813 310.72 110.104V118.58C310.72 119.032 310.72 119.408 310.71 119.7C310.703 119.995 310.692 120.319 310.678 120.677C309.208 120.841 307.884 121.164 306.699 121.644V120.677L306.703 120.681ZM313.542 103.318H316.591C317.758 103.318 319.113 103.266 320.65 103.165C322.19 103.061 323.406 102.935 324.298 102.786C324.298 102.73 324.312 102.643 324.339 102.518C324.367 102.396 324.381 102.313 324.381 102.271C324.423 101.954 324.482 101.662 324.566 101.388C324.594 101.318 324.615 101.255 324.629 101.193C324.643 101.13 324.66 101.057 324.681 100.967C324.702 100.876 324.719 100.793 324.733 100.709H325.785C325.688 100.998 325.608 101.548 325.538 102.354C325.51 102.588 325.496 102.925 325.496 103.363C325.496 103.447 325.482 103.561 325.454 103.714C325.426 103.864 325.413 103.989 325.413 104.083H319.622C321.956 104.48 323.886 104.946 325.413 105.481C325.413 106.605 325.534 107.732 325.782 108.855H324.566C324.388 108.086 324.298 107.245 324.298 106.326C323.13 105.791 321.786 105.405 320.27 105.165C318.751 104.925 317.524 104.803 316.591 104.803H313.542V119.47H317.127C318.131 119.47 319.051 119.429 319.89 119.349C320.73 119.265 321.779 119.07 323.043 118.761C324.308 118.451 325.674 118.009 327.144 117.436C327.144 117.105 327.158 116.851 327.186 116.674C327.186 116.291 327.2 115.996 327.228 115.79C327.256 115.366 327.339 114.879 327.475 114.33H328.322V118.361C328.13 118.458 327.946 118.528 327.775 118.576C327.604 118.625 327.405 118.684 327.186 118.75C326.472 118.969 325.879 119.109 325.413 119.161C325.137 119.216 324.831 119.282 324.496 119.366C324.158 119.449 323.813 119.509 323.454 119.55C323.071 119.634 322.479 119.7 321.681 119.756H328.315C328.315 119.975 328.301 120.145 328.273 120.27V121.279C328.301 121.362 328.315 121.484 328.315 121.648H327.263C327.235 121.564 327.221 121.401 327.221 121.154V120.681H312.18V90.8523H319.772C320.131 90.8384 320.451 90.828 320.74 90.821C321.03 90.8141 321.402 90.8106 321.855 90.8106H323.96C324.165 90.8106 324.489 90.7967 324.928 90.7689C325.367 90.741 325.691 90.7271 325.897 90.7271H326.702C326.716 90.6715 326.747 90.5949 326.796 90.4906C326.845 90.3863 326.897 90.268 326.949 90.1289H327.754C327.618 90.5393 327.507 91.1723 327.423 92.021L321.343 91.5271C324.242 92.0905 326.2 92.6366 327.217 93.1723C327.203 93.2696 327.193 93.3531 327.186 93.4296C327.179 93.5062 327.162 93.5966 327.134 93.7079C327.078 93.8852 327.015 94.1948 326.949 94.6331C326.907 95.1409 326.851 95.5652 326.785 95.9095H325.775C325.719 95.6765 325.691 95.3113 325.691 94.8209C325.691 94.4522 325.719 94.1566 325.775 93.9374C324.346 93.1549 322.876 92.647 321.364 92.414C319.852 92.181 318.211 92.0523 316.441 92.0245H314.051C313.981 92.821 313.939 93.287 313.929 93.4227C313.859 94.1079 313.796 95.0748 313.744 96.3234C313.688 97.4469 313.661 98.292 313.661 98.852C313.605 99.1129 313.577 99.5372 313.577 100.129C313.549 100.24 313.535 100.431 313.535 100.706V103.318H313.542Z" fill="#4A80A2"/>
<path d="M334.088 91.5768C333.36 91.2742 332.851 91.0481 332.562 90.8986V89.9316C333.193 90.1925 333.82 90.3977 334.437 90.5473C335.053 90.6968 335.743 90.8151 336.496 90.8986C336.524 91.3507 336.538 92.0359 336.538 92.9541V101.43C336.538 104.874 336.471 108.414 336.342 112.056C336.21 115.698 336.036 118.574 335.816 120.685H333.757C333.085 120.685 332.405 120.727 331.719 120.807V119.84C331.803 119.826 331.872 119.816 331.935 119.809C331.998 119.802 332.067 119.798 332.151 119.798C332.315 119.77 332.447 119.753 332.541 119.746C332.639 119.739 332.733 119.729 332.83 119.715C333.078 119.645 333.238 119.61 333.315 119.6C333.391 119.593 333.489 119.576 333.614 119.548C333.74 119.52 333.883 119.492 334.046 119.464C334.224 118.146 334.388 116.431 334.531 114.31C334.674 112.188 334.778 110.056 334.841 107.903C334.903 105.75 334.935 103.688 334.935 101.712C334.949 101.232 334.956 100.502 334.956 99.5208C334.956 98.54 334.963 97.8096 334.977 97.3296C334.977 95.4514 334.963 94.0393 334.935 93.0932C334.935 92.8185 334.935 92.5959 334.924 92.4255C334.917 92.255 334.907 92.0637 334.893 91.8585C334.851 91.8446 334.813 91.8342 334.778 91.8272C334.743 91.8203 334.712 91.8168 334.684 91.8168C334.586 91.7611 334.489 91.7124 334.384 91.6637C334.283 91.615 334.182 91.5837 334.085 91.5698L334.088 91.5768ZM340.495 91.9072H339.569V112.209C339.583 112.592 339.593 112.95 339.6 113.28C339.607 113.611 339.611 114.042 339.611 114.578V117.826C339.652 118.129 339.673 118.616 339.673 119.287C340.346 119.315 341.328 119.329 342.621 119.329C344.269 119.315 345.697 119.204 346.906 118.988C348.115 118.776 349.014 118.546 349.606 118.299C350.199 118.052 350.666 117.819 351.007 117.6C351.007 117.339 351.007 117.134 350.997 116.984C350.99 116.835 350.979 116.661 350.965 116.47C350.979 116.223 350.99 116 350.997 115.802C351.004 115.604 351.007 115.353 351.007 115.051H351.892C351.892 116.616 352.007 117.746 352.24 118.445C352.105 118.515 352 118.577 351.93 118.63C351.505 118.751 351.244 118.821 351.146 118.835C350.969 118.89 350.7 118.957 350.342 119.04C349.983 119.124 349.718 119.19 349.537 119.245C348.944 119.343 348.506 119.43 348.216 119.513C347.885 119.583 347.634 119.635 347.464 119.677C347.293 119.718 347.094 119.76 346.875 119.798H352.234C352.289 120.167 352.359 120.504 352.439 120.807C352.467 120.943 352.484 121.068 352.491 121.176C352.498 121.283 352.509 121.402 352.523 121.527C352.537 121.555 352.547 121.586 352.554 121.621C352.561 121.656 352.565 121.694 352.565 121.736H351.885C351.76 121.572 351.652 121.29 351.554 120.894H351.101C350.923 120.88 350.756 120.87 350.606 120.863C350.457 120.856 350.262 120.852 350.028 120.852C349.519 120.852 349.14 120.838 348.892 120.81C348.687 120.81 348.384 120.796 347.983 120.769C347.582 120.741 347.283 120.727 347.074 120.727C346.826 120.699 346.387 120.685 345.753 120.685H337.952C337.924 120.097 337.91 119.224 337.91 118.073C337.91 117.485 337.907 117.009 337.9 116.644C337.893 116.282 337.882 115.885 337.868 115.461C337.882 115.023 337.893 114.619 337.9 114.258C337.907 113.896 337.91 113.423 337.91 112.849C337.91 112.369 337.907 111.986 337.9 111.698C337.893 111.409 337.882 111.096 337.868 110.752L337.952 90.9021C339.081 90.9021 339.924 90.8742 340.475 90.8186C340.68 90.7908 340.889 90.7699 341.095 90.756C341.3 90.742 341.513 90.7246 341.725 90.7038C341.938 90.6829 342.15 90.6655 342.356 90.6516C342.729 90.5682 343.123 90.5299 343.534 90.5299V91.4551C343.328 91.5246 343.102 91.5768 342.854 91.6185C342.593 91.6881 342.133 91.7542 341.475 91.8238C341.227 91.8238 340.896 91.8516 340.485 91.9072H340.495Z" fill="#4A80A2"/>
</g>
<defs>
<linearGradient id="paint0_linear_3447_28992" x1="72.1345" y1="66.3479" x2="72.1345" y2="0.900391" gradientUnits="userSpaceOnUse">
<stop stop-color="#EFDC24"/>
<stop offset="1" stop-color="#F4B330"/>
</linearGradient>
<clipPath id="clip0_3447_28992">
<rect width="527" height="146" fill="white"/>
</clipPath>
</defs>
</svg>
